<?xml version="1.0" encoding="utf-8"?>
<!-- Generator: Adobe Illustrator 12.0.0, SVG Export Plug-In . SVG Version: 6.00 Build 51448)  -->
<!DOCTYPE svg PUBLIC "-//W3C//DTD SVG 1.1//EN" "http://www.w3.org/Graphics/SVG/1.1/DTD/svg11.dtd" [
	<!ENTITY ns_svg "http://www.w3.org/2000/svg">
	<!ENTITY ns_xlink "http://www.w3.org/1999/xlink">
]>
<svg  version="1.1" id="Layer_1" xmlns="&ns_svg;" xmlns:xlink="&ns_xlink;" width="727.225" height="160.125"
	 viewBox="0 0 727.225 160.125" overflow="visible" enable-background="new 0 0 727.225 160.125" xml:space="preserve">
<g>
	<path d="M72,119.531c-3.023,2.566-7.063,4.432-12.117,5.596s-10.082,1.748-15.078,1.748c-6.277,0-12.117-1.076-17.521-3.225
		c-5.406-2.148-10.143-5.721-14.209-10.717c-4.068-4.996-7.264-11.561-9.588-19.693S0,75.115,0,63.264
		C0,50.947,1.307,40.723,3.924,32.59c2.615-8.133,6.045-14.609,10.289-19.432c4.242-4.82,9.096-8.219,14.561-10.195
		C34.236,0.988,39.758,0,45.34,0c5.695,0,10.666,0.465,14.908,1.395s7.701,1.977,10.377,3.137L66.27,23.875
		c-2.211-1.15-4.799-2.043-7.764-2.676c-2.967-0.633-6.486-0.949-10.557-0.949c-8.027,0-14.191,3.484-18.494,10.449
		C25.15,37.664,23,48.578,23,63.438c0,6.387,0.494,12.221,1.482,17.502c0.988,5.283,2.557,9.84,4.709,13.67
		c2.15,3.832,4.883,6.791,8.195,8.881s7.295,3.135,11.947,3.135c4.068,0,7.557-0.557,10.463-1.67s5.521-2.432,7.848-3.955
		L72,119.531z"/>
	<path d="M79.031,80.813c0-15.445,3.021-26.941,9.066-34.49C94.142,38.775,102.57,35,113.38,35c11.625,0,20.285,3.834,25.98,11.498
		s8.545,19.104,8.545,34.314c0,15.563-3.023,27.088-9.068,34.578s-14.531,11.234-25.457,11.234
		C90.48,126.625,79.031,111.355,79.031,80.813z M100.406,80.813c0,8.699,0.992,15.426,2.98,20.18
		c1.986,4.756,5.318,7.133,9.994,7.133c4.441,0,7.742-2.059,9.906-6.176c2.162-4.117,3.244-11.162,3.244-21.137
		c0-8.93-0.994-15.713-2.98-20.354c-1.988-4.639-5.377-6.959-10.17-6.959c-4.092,0-7.277,2.059-9.557,6.176
		S100.406,70.84,100.406,80.813z"/>
	<path d="M222.346,93.664c0,4.879,0.059,9.756,0.18,14.635s0.602,10.279,1.445,16.201h-14.709l-2.787-10.064h-0.697
		c-3.953,8.127-10.871,12.189-20.754,12.189c-8.836,0-15.783-3.482-20.842-10.447s-7.586-18.285-7.586-33.959
		c0-15.324,2.732-26.961,8.197-34.914s13.604-11.93,24.42-11.93c2.789,0,5.115,0.176,6.975,0.523s3.662,0.928,5.408,1.74V2.375
		h20.75V93.664z M189.871,107.625c3.148,0,5.656-0.783,7.523-2.35s3.268-3.857,4.201-6.873V57.334
		c-1.168-1.043-2.48-1.797-3.938-2.262c-1.459-0.465-3.355-0.697-5.688-0.697c-4.668,0-8.168,2.09-10.5,6.266
		c-2.334,4.176-3.5,11.602-3.5,22.273c0,8.006,0.961,14.125,2.887,18.359S185.787,107.625,189.871,107.625z"/>
	<path d="M296.161,117.932c-2.902,2.551-6.852,4.637-11.844,6.26c-4.992,1.621-10.217,2.434-15.674,2.434
		c-6.037,0-11.232-1.047-15.586-3.137c-4.355-2.092-7.926-5.113-10.711-9.066c-2.787-3.951-4.848-8.746-6.184-14.383
		s-2.002-12.057-2.002-19.264c0-15.689,3.107-27.283,9.326-34.779c6.217-7.496,14.846-11.246,25.887-11.246
		c3.719,0,7.32,0.553,10.809,1.656c3.486,1.104,6.596,2.963,9.326,5.576s4.939,6.098,6.625,10.453
		c1.684,4.355,2.527,9.846,2.527,16.467c0,2.555-0.146,5.285-0.436,8.189c-0.291,2.904-0.727,6.041-1.307,9.408h-42.33
		c0.23,7.227,1.738,12.762,4.52,16.607s7.246,5.768,13.391,5.768c3.709,0,7.1-0.576,10.172-1.732s5.42-2.369,7.043-3.643
		L296.161,117.932z M269.024,52.5c-4.406,0-7.709,1.775-9.912,5.324c-2.203,3.551-3.479,8.525-3.826,14.926h24
		c0.348-6.633-0.348-11.666-2.086-15.1C275.459,54.217,272.735,52.5,269.024,52.5z"/>
	<path fill="#BED600" d="M354.888,93.043c0-3.715-1.104-6.877-3.309-9.49c-2.207-2.611-4.963-5.078-8.271-7.4
		c-3.309-2.32-6.906-4.701-10.795-7.141c-3.891-2.439-7.488-5.285-10.797-8.539s-6.064-7.088-8.27-11.502
		c-2.207-4.414-3.309-9.818-3.309-16.209c0-5.924,0.898-10.947,2.699-15.072c1.799-4.125,4.266-7.494,7.4-10.107
		c3.133-2.613,6.848-4.531,11.143-5.752C335.675,0.611,340.261,0,345.136,0c5.92,0,11.434,0.584,16.541,1.748
		c5.107,1.166,9.344,2.74,12.711,4.721l-6.795,19.406c-1.971-1.406-4.896-2.695-8.777-3.867c-3.883-1.172-8.082-1.758-12.6-1.758
		c-4.52,0-7.996,0.93-10.43,2.785c-2.434,1.857-3.648,4.584-3.648,8.182c0,3.25,1.102,6.123,3.309,8.619
		c2.205,2.496,4.961,4.904,8.27,7.225s6.906,4.73,10.797,7.229c3.889,2.498,7.486,5.402,10.795,8.713
		c3.309,3.313,6.064,7.205,8.271,11.678c2.205,4.473,3.309,9.789,3.309,15.945c0,6.158-0.902,11.502-2.705,16.033
		s-4.361,8.279-7.674,11.242c-3.314,2.963-7.297,5.199-11.949,6.709s-9.826,2.266-15.523,2.266c-7.211,0-13.52-0.697-18.926-2.092
		c-5.408-1.395-9.566-2.963-12.473-4.707l7.145-19.701c2.324,1.391,5.521,2.779,9.59,4.168s8.428,2.082,13.078,2.082
		C349.075,106.625,354.888,102.098,354.888,93.043z"/>
	<path fill="#BED600" d="M416.247,86.215l2.26,13.592h0.869l1.564-13.766l10.084-48.791h21.258l-21.754,78.605
		c-1.977,6.855-3.836,13.014-5.578,18.475c-1.744,5.461-3.604,10.107-5.58,13.943c-1.977,3.834-4.213,6.768-6.711,8.803
		c-2.5,2.031-5.492,3.049-8.977,3.049c-2.441,0-4.795-0.203-7.06-0.605c-2.266-0.404-4.213-1.068-5.84-1.99l3.484-17.654
		c1.512,0.58,3.053,0.842,4.622,0.785c1.57-0.061,3.023-0.645,4.361-1.758c1.336-1.113,2.529-2.846,3.576-5.191
		c1.047-2.35,1.918-5.461,2.617-9.336L379.157,37.25h24.918L416.247,86.215z"/>
	<path fill="#BED600" d="M501.379,124.375V71.383c0-6.391-0.756-10.865-2.268-13.422s-4.07-3.836-7.674-3.836
		c-3.023,0-5.641,0.93-7.85,2.789c-2.211,1.859-3.779,4.184-4.709,6.973v60.488h-20.75V37.25h16.566l2.441,10.076h0.523
		c2.092-3.369,4.939-6.244,8.545-8.627c3.604-2.383,8.313-3.574,14.125-3.574c3.488,0,6.598,0.523,9.33,1.568
		c2.73,1.047,5.027,2.76,6.887,5.143s3.256,5.58,4.186,9.588c0.93,4.01,1.396,8.979,1.396,14.904v58.047H501.379z"/>
	<path fill="#BED600" d="M529.516,37.25h9.625V20.836l20.75-6.461V37.25h16.875v18.5h-16.875v37.984
		c0,4.996,0.492,8.539,1.479,10.629c0.986,2.092,2.756,3.137,5.311,3.137c1.74,0,3.307-0.176,4.699-0.531
		c1.391-0.354,2.9-0.885,4.525-1.594l2.611,16.586c-2.555,1.281-5.518,2.357-8.885,3.23c-3.369,0.871-6.912,1.309-10.629,1.309
		c-6.621,0-11.586-1.918-14.896-5.75c-3.311-3.834-4.965-10.281-4.965-19.344V55.75h-9.625V37.25z"/>
	<path fill="#BED600" d="M587.361,42.477c3.48-2.092,7.83-3.777,13.051-5.057c5.219-1.279,11.137-1.92,17.75-1.92
		c9.859,0,16.732,2.555,20.619,7.664s5.83,12.365,5.83,21.77c0,5.459-0.146,10.83-0.438,16.111
		c-0.291,5.283-0.494,10.451-0.609,15.502c-0.117,5.051-0.029,9.928,0.262,14.631c0.289,4.703,1.094,9.143,2.41,13.322h-16.975
		l-3.311-10.555h-0.697c-1.857,3.371-4.469,6.16-7.832,8.367c-3.365,2.207-7.6,3.313-12.705,3.313
		c-6.848,0-12.242-2.293-16.188-6.879s-5.918-10.713-5.918-18.377c0-10.449,3.713-17.881,11.139-22.295s17.463-6.271,30.111-5.574
		c0.58-6.766,0.146-11.666-1.303-14.699s-4.547-4.551-9.295-4.551c-3.477,0-7.066,0.412-10.773,1.232s-7.008,1.994-9.902,3.518
		L587.361,42.477z M612.18,107.875c3.137,0,5.693-0.785,7.67-2.357c1.977-1.57,3.43-3.287,4.359-5.15V85.875
		c-2.674-0.348-5.23-0.404-7.672-0.174c-2.441,0.232-4.59,0.756-6.449,1.57c-1.859,0.816-3.342,2.01-4.445,3.58
		c-1.105,1.572-1.656,3.58-1.656,6.023c0,3.609,0.725,6.344,2.178,8.207S609.621,107.875,612.18,107.875z"/>
	<path fill="#BED600" d="M674.813,79.768L654.1,37.25h24.395l8.863,20.563l3.301,11.152l3.656-11.152l9.057-20.563h22.479
		l-20.914,41.82l22.289,45.305h-23.523l-10.611-22.652l-3.826-12.371l-4,12.371l-10.609,22.652H652.35L674.813,79.768z"/>
</g>
</svg>
