<?xml version="1.0" encoding="UTF-8" standalone="no"?>
<!-- Created with Inkscape (http://www.inkscape.org/) -->

<svg
   version="1.1"
   id="svg2"
   width="1066.032"
   height="235.84399"
   viewBox="0 0 1066.032 235.84399"
   sodipodi:docname="logo-pycampes-gris.svg"
   inkscape:version="1.2.2 (b0a8486541, 2022-12-01)"
   xmlns:inkscape="http://www.inkscape.org/namespaces/inkscape"
   xmlns:sodipodi="http://sodipodi.sourceforge.net/DTD/sodipodi-0.dtd"
   xmlns="http://www.w3.org/2000/svg"
   xmlns:svg="http://www.w3.org/2000/svg">
  <defs
     id="defs6">
    <clipPath
       clipPathUnits="userSpaceOnUse"
       id="clipPath70">
      <path
         d="M 0,0 H 842 V 596 H 0 Z"
         id="path68" />
    </clipPath>
    <clipPath
       clipPathUnits="userSpaceOnUse"
       id="clipPath74">
      <path
         d="m 329.043,327.449 c 0.148,0.547 -0.832,1.071 -2.727,1.461 -1.894,0.387 -4.543,0.602 -7.367,0.602 -2.824,0 -5.59,-0.215 -7.691,-0.602 -2.098,-0.39 -3.363,-0.914 -3.508,-1.461 -0.148,-0.547 0.832,-1.074 2.727,-1.461 1.89,-0.386 4.543,-0.605 7.367,-0.605 2.824,0 5.59,0.219 7.691,0.605 2.098,0.387 3.36,0.914 3.508,1.461 z"
         id="path72" />
    </clipPath>
    <clipPath
       clipPathUnits="userSpaceOnUse"
       id="clipPath78">
      <path
         d="M 25.626133,93.627049 H 95.956976 V 171.51864 H 25.626133 Z"
         id="path76" />
    </clipPath>
    <radialGradient
       fx="61.518883"
       fy="132.28575"
       cx="61.518883"
       cy="132.28575"
       r="29.036913"
       gradientUnits="userSpaceOnUse"
       spreadMethod="pad"
       id="radialGradient84">
      <stop
         style="stop-opacity:0.49803922;stop-color:#ffffff"
         offset="0"
         id="stop80" />
      <stop
         style="stop-opacity:0;stop-color:#ffffff"
         offset="1"
         id="stop82" />
    </radialGradient>
    <mask
       maskUnits="userSpaceOnUse"
       x="0"
       y="0"
       width="1"
       height="1"
       id="mask86">
      <g
         id="g92">
        <g
           clip-path="url(#clipPath78)"
           id="g90">
          <path
             d="M 25.626133,93.627049 H 95.956976 V 171.51864 H 25.626133 Z"
             style="fill:url(#radialGradient84);stroke:none"
             id="path88" />
        </g>
      </g>
    </mask>
    <radialGradient
       fx="61.518883"
       fy="132.28575"
       cx="61.518883"
       cy="132.28575"
       r="29.036913"
       gradientUnits="userSpaceOnUse"
       spreadMethod="pad"
       id="radialGradient98">
      <stop
         style="stop-opacity:1;stop-color:#4A4A4A"
         offset="0"
         id="stop94" />
      <stop
         style="stop-opacity:1;stop-color:#7f7f7f"
         offset="1"
         id="stop96" />
    </radialGradient>
  </defs>
  <sodipodi:namedview
     id="namedview4"
     pagecolor="#ffffff"
     bordercolor="#000000"
     borderopacity="0.25"
     inkscape:showpageshadow="2"
     inkscape:pageopacity="0"
     inkscape:pagecheckerboard="0"
     inkscape:deskcolor="#d1d1d1"
     showgrid="false"
     inkscape:zoom="0.86804109"
     inkscape:cx="602.50604"
     inkscape:cy="76.609276"
     inkscape:window-width="1920"
     inkscape:window-height="1200"
     inkscape:window-x="2560"
     inkscape:window-y="0"
     inkscape:window-maximized="1"
     inkscape:current-layer="g10">
    <inkscape:page
       x="0"
       y="0"
       id="page8"
       width="1066.032"
       height="235.84399" />
  </sodipodi:namedview>
  <g
     id="g10"
     inkscape:groupmode="layer"
     inkscape:label="Page 1"
     transform="matrix(1.3333333,0,0,1.3333333,-34.098666,-312.87999)">
    <g
       id="g12"
       style="fill:#4d4d4d"
       transform="translate(3,4.5)">
      <path
         d="m 288.398,330.086 4.997,-2.16 2.156,4.996 -4.996,2.16 z"
         style="fill:#4d4d4d;fill-opacity:1;fill-rule:nonzero;stroke:none"
         id="path14" />
      <path
         d="m 292.793,340.047 4.996,-2.164 1.957,4.515 -4.992,2.168 z"
         style="fill:#4d4d4d;fill-opacity:1;fill-rule:nonzero;stroke:none"
         id="path16" />
      <path
         d="m 284.07,320.102 4.996,-2.161 2.161,4.993 -4.997,2.16 z"
         style="fill:#4d4d4d;fill-opacity:1;fill-rule:nonzero;stroke:none"
         id="path18" />
      <path
         d="m 324.215,278.172 v 5.441 h 12.953 l 9.047,20.176 4.961,-2.223 -10.485,-23.394 z"
         style="fill:#4d4d4d;fill-opacity:1;fill-rule:nonzero;stroke:none"
         id="path20" />
      <path
         d="m 234.469,272.734 c 10.496,0 19.035,-8.543 19.035,-19.039 0,-10.492 -8.539,-19.035 -19.035,-19.035 h -2.719 v 4.774 l 0.68,0.769 c 1.316,1.488 2.039,3.383 2.039,5.336 0,4.496 -3.66,8.156 -8.16,8.156 -1.954,0 -3.844,-0.722 -5.332,-2.035 l -0.77,-0.683 h -4.777 v 2.718 c 0,10.496 8.543,19.039 19.039,19.039 z m -8.16,-13.597 c 7.5,0 13.597,-6.102 13.597,-13.598 0,-1.594 -0.281,-3.16 -0.828,-4.637 5.234,1.895 8.988,6.914 8.988,12.793 0,7.5 -6.101,13.598 -13.597,13.598 -5.879,0 -10.903,-3.75 -12.793,-8.988 1.472,0.547 3.039,0.832 4.633,0.832 z"
         style="fill:#4d4d4d;fill-opacity:1;fill-rule:nonzero;stroke:none"
         id="path22" />
      <path
         d="m 375.895,289.344 0.003,-0.293 c 0,-2.168 -0.523,-4.246 -1.457,-6.106 5.543,-1.715 9.61,-6.832 9.61,-12.929 0,-3.375 -1.27,-6.59 -3.531,-9.075 0.539,-1.468 0.808,-2.984 0.808,-4.523 0,-7.5 -6.098,-13.602 -13.598,-13.602 -1.546,0 -3.054,0.293 -4.496,0.797 -2.695,-5.304 -8.191,-8.953 -14.539,-8.953 -3.629,0 -7.136,1.238 -9.988,3.473 -2.469,-2.211 -5.691,-3.473 -9.051,-3.473 -5.746,0 -10.672,3.59 -12.648,8.727 -1.172,-0.336 -2.391,-0.571 -3.668,-0.571 -7.5,0 -13.602,6.102 -13.602,13.602 0,1.555 0.285,3.094 0.805,4.547 -1.59,1.765 -2.758,3.918 -3.25,6.328 h -45.547 l -36.316,81.008 v 6.023 h 94.382 c -1.132,2.43 -1.914,5.141 -1.914,8.293 0,4.199 1.379,8.035 3.774,11.285 l -24.734,24.735 3.847,3.843 24.629,-24.632 c 1.363,1.117 2.887,2.113 4.547,2.964 l -11.637,18.286 4.594,2.922 12.199,-19.176 c 2.242,0.66 4.625,1.113 7.145,1.297 l 0.113,19.152 5.441,-0.031 -0.117,-19.102 c 3.039,-0.164 5.832,-0.601 8.363,-1.301 l 14.028,19.297 4.398,-3.199 -13.16,-18.102 c 1.442,-0.73 2.746,-1.578 3.918,-2.535 l 24.16,24.16 3.848,-3.843 -24.328,-24.328 c 2.187,-3.223 3.367,-7.141 3.367,-11.692 0,-2.824 -0.637,-5.59 -1.605,-8.293 h 23.363 v -6.023 l -20.539,-45.813 c 6.871,-0.789 12.3,-6.386 12.383,-13.144 z m -65.278,-27.489 v -5.437 c -1.879,0 -3.672,0.383 -5.305,1.078 -0.05,-0.359 -0.132,-0.711 -0.132,-1.078 0,-4.5 3.66,-8.16 8.16,-8.16 4.496,0 8.156,3.66 8.156,8.16 h 5.442 c 0,-4.262 -2.012,-8.023 -5.09,-10.52 1.015,-3.39 4.148,-5.8 7.808,-5.8 2.637,0 5.129,1.304 6.664,3.48 l 1.981,2.809 2.277,-2.575 c 2.117,-2.394 5,-3.714 8.117,-3.714 5.996,0 10.875,4.879 10.875,10.879 0,6 -4.879,10.878 -10.875,10.878 v 5.438 c 8.996,0 16.317,-7.316 16.317,-16.316 0,-0.739 -0.067,-1.461 -0.164,-2.172 0.918,-0.348 1.886,-0.547 2.882,-0.547 4.5,0 8.161,3.66 8.161,8.16 0,1.309 -0.348,2.613 -1.032,3.867 l -1.086,1.988 1.766,1.426 c 1.953,1.578 3.07,3.879 3.07,6.317 0,4.496 -3.66,8.156 -8.16,8.156 v 0.008 c -1.066,-0.805 -2.261,-1.465 -3.562,-1.934 l -1.836,5.121 c 3.234,1.16 5.406,4.25 5.402,7.809 -0.055,4.433 -3.898,8.035 -8.57,8.035 h -0.735 l -13.414,-29.918 h -44.773 c 1.125,-3.156 4.117,-5.438 7.656,-5.438 z m -34.129,80.442 c -13.066,-15.68 -20.261,-35.555 -20.261,-55.965 v -3.199 l 28.488,65.75 h -2.738 z m -1.593,6.586 h -42.778 l 2.586,-3.102 c 9.067,-10.883 15.449,-23.668 18.801,-37.269 3.355,13.597 9.738,26.386 18.805,37.265 z m -24.11,-66.153 v 3.602 c 0,20.41 -7.195,40.285 -20.262,55.969 l -5.488,6.582 h -3.906 z m 62.555,79.887 c 0,-4.941 2.668,-8.59 5.496,-12.453 1.863,-2.543 3.769,-5.148 4.734,-8.102 1.692,0.993 3.368,2.43 3.368,4.102 v 2.719 h 5.437 v -2.719 c 0,-1.961 -0.687,-3.621 -1.703,-5.008 2.168,-5.195 7.32,-8.519 10.59,-10.179 1.172,3.359 3.629,7.011 6.347,11.062 4.332,6.441 9.243,13.742 9.243,20.578 0,7.754 -4.164,11.863 -9.27,14.004 0.703,-1.586 1.113,-3.324 1.113,-5.168 0,-2.891 -0.996,-5.726 -2.804,-7.988 l -10.797,-13.496 -10.793,13.496 c -1.809,2.258 -2.805,5.097 -2.805,7.988 0,1.578 0.324,3.067 0.848,4.461 -5.52,-2.875 -9.004,-7.656 -9.004,-13.297 z m 21.621,16.184 c -0.352,0 -0.695,-0.024 -1.043,-0.039 -3.879,-0.192 -6.98,-3.383 -6.98,-7.309 0,-1.66 0.57,-3.293 1.613,-4.59 l 6.543,-8.183 6.551,8.187 c 1.039,1.293 1.609,2.926 1.609,4.586 0,3.985 -3.195,7.227 -7.156,7.328 -0.387,0.008 -0.77,0.02 -1.137,0.02 z m 23.289,-29.918 c -1.828,-3.445 -4.027,-6.758 -6.129,-9.879 -3.023,-4.496 -6.148,-9.145 -6.148,-11.875 v -3.805 l -3.598,1.231 c -0.508,0.172 -11.227,3.925 -15.957,12.89 -2.07,-1.238 -3.922,-1.843 -4.102,-1.898 l -3.539,-1.121 v 3.715 c 0,2.894 -2.004,5.636 -4.328,8.808 -0.461,0.629 -0.929,1.278 -1.394,1.934 h -22.407 l -33,-76.149 h 86.567 l 34.137,76.149 z"
         style="fill:#4d4d4d;fill-opacity:1;fill-rule:nonzero;stroke:none"
         id="path24" />
      <path
         d="m 313.34,278.172 h 5.438 v 5.441 h -5.438 z"
         style="fill:#4d4d4d;fill-opacity:1;fill-rule:nonzero;stroke:none"
         id="path26" />
      <path
         d="m 302.461,278.172 h 5.438 v 5.441 h -5.438 z"
         style="fill:#4d4d4d;fill-opacity:1;fill-rule:nonzero;stroke:none"
         id="path28" />
      <path
         d="m 628.527,342.207 v 9.734 c 0,1.149 -0.933,2.082 -2.082,2.082 -1.148,0 -2.082,-0.933 -2.082,-2.082 v -10.929 c 1.344,0.836 2.793,1.23 4.164,1.195 z"
         style="fill:#4d4d4d;fill-opacity:1;fill-rule:nonzero;stroke:none"
         id="path30" />
      <path
         d="m 634.16,336.691 c 0,-0.035 0.008,-0.07 0.016,-0.105 l 2.586,4.703 c 0.152,0.277 0.242,0.59 0.254,0.906 l 0.457,9.649 c 0.05,1.148 -0.836,2.121 -1.985,2.176 -0.031,0.003 -0.062,0.003 -0.097,0.003 -1.106,0 -2.024,-0.871 -2.079,-1.984 l -0.429,-9.168 -1,-1.812 c 1.375,-1.043 2.144,-2.621 2.277,-4.368 z"
         style="fill:#4d4d4d;fill-opacity:1;fill-rule:nonzero;stroke:none"
         id="path32" />
      <path
         d="m 625.379,315.387 c 0,1.984 1.609,3.593 3.598,3.593 1.984,0 3.593,-1.609 3.593,-3.593 0,-1.985 -1.609,-3.594 -3.593,-3.594 -1.989,0 -3.598,1.609 -3.598,3.594 z"
         style="fill:#4d4d4d;fill-opacity:1;fill-rule:nonzero;stroke:none"
         id="path34" />
      <path
         d="m 643.641,327.012 -5.008,2.547 c -0.012,-0.055 -0.028,-0.114 -0.043,-0.168 l 3.285,-2.575 c 0.523,0.262 1.148,0.348 1.766,0.196 z"
         style="fill:#4d4d4d;fill-opacity:1;fill-rule:nonzero;stroke:none"
         id="path36" />
      <path
         d="m 625.309,334.945 2.019,2.578 c 0.317,0.399 0.895,0.469 1.297,0.157 0.398,-0.313 0.469,-0.895 0.156,-1.293 l -0.351,-0.449 c 0.882,-0.149 1.687,-0.645 2.211,-1.391 0.336,-0.473 0.539,-1.008 0.601,-1.57 0.363,0.031 0.735,-0.071 1.043,-0.313 0.653,-0.512 0.766,-1.457 0.254,-2.109 -0.512,-0.657 -1.473,-0.782 -2.137,-0.231 -0.172,-0.191 -0.363,-0.363 -0.578,-0.512 l -1.398,-0.992 c 1.168,-0.707 0.84,-1.511 1.91,-2.351 1.422,-1.114 3.453,-0.633 4.848,0.551 0.574,-0.45 4.781,-3.743 5.359,-4.2 l -0.34,-0.433 c -0.316,-0.399 -0.246,-0.981 0.156,-1.293 0.399,-0.313 0.981,-0.242 1.293,0.156 l 0.34,0.438 c 0.067,-0.055 0.012,-0.012 0.293,-0.231 l -0.344,-0.434 c -0.312,-0.398 -0.242,-0.98 0.161,-1.293 0.394,-0.308 0.976,-0.246 1.293,0.157 l 0.339,0.433 0.168,-0.129 c 0.465,-0.367 1.129,-0.316 1.532,0.098 0.484,0.496 0.425,1.293 -0.11,1.715 l -0.172,0.133 0.344,0.433 c 0.313,0.399 0.242,0.981 -0.16,1.293 -0.402,0.317 -0.981,0.239 -1.293,-0.156 l -0.34,-0.437 -0.289,0.23 0.34,0.434 c 0.32,0.406 0.246,1.007 -0.192,1.316 -0.402,0.285 -0.953,0.207 -1.257,-0.18 l -0.34,-0.437 -5.36,4.199 c 0.485,0.973 0.696,2.125 0.43,3.176 -0.312,1.222 -1.226,2.058 -2.418,2.25 -1.168,0.187 -2.031,1.16 -2.117,2.308 -0.094,1.219 -0.598,2.364 -1.574,3.129 -2.492,1.95 -6.68,0.399 -8.481,-3.175 -0.629,-1.247 -0.925,-2.696 -0.656,-4.063 z"
         style="fill:#4d4d4d;fill-opacity:1;fill-rule:nonzero;stroke:none"
         id="path38" />
      <path
         d="m 620.207,324.211 c 0.012,-2.254 1.852,-4.086 4.105,-4.086 0,0 7.774,0 9.329,0 1.75,0 3.199,1.145 3.847,2.973 l -2.371,1.859 c -0.262,-0.145 -0.531,-0.269 -0.805,-0.375 -0.007,-0.043 -0.101,-0.258 -0.218,-0.527 -0.055,-0.121 -0.188,-0.192 -0.321,-0.164 -0.128,0.031 -0.222,0.144 -0.222,0.281 v 0.168 c -0.438,-0.106 -0.879,-0.16 -1.321,-0.16 -1.093,0 -2.101,0.336 -2.921,0.98 -0.618,0.481 -1.09,1.102 -1.403,1.84 -0.133,0.32 -0.445,0.527 -0.793,0.527 -0.047,0 -0.422,-0.054 -0.629,-0.074 l -2.121,-1.5 v -1.719 c 0,-0.187 -0.152,-0.343 -0.343,-0.343 -0.188,0 -0.344,0.152 -0.344,0.343 -0.016,1.61 -0.012,1.387 -0.028,3.254 l 5.219,3.684 c 0.781,0.551 0.969,1.633 0.414,2.414 -0.547,0.777 -1.629,0.973 -2.418,0.418 -0.621,-0.438 -5.301,-3.742 -5.957,-4.207 -0.461,-0.328 -0.738,-0.863 -0.734,-1.43 0.031,-3.621 0.023,-2.601 0.035,-4.156 z"
         style="fill:#4d4d4d;fill-opacity:1;fill-rule:nonzero;stroke:none"
         id="path40" />
      <path
         d="m 661.371,323.52 c 0,2.023 1.641,3.668 3.668,3.668 2.027,0 3.668,-1.645 3.668,-3.668 0,-2.028 -1.641,-3.668 -3.668,-3.668 -2.027,0 -3.668,1.64 -3.668,3.668 z"
         style="fill:#4d4d4d;fill-opacity:1;fill-rule:nonzero;stroke:none"
         id="path42" />
      <path
         d="m 665.688,338.758 -6.629,0.39 c -0.934,0.051 -1.704,-0.656 -1.758,-1.558 -0.055,-0.918 0.644,-1.703 1.562,-1.758 l 5.739,-0.34 2.714,-4.656 -3.015,3.012 -1.481,0.086 -0.355,-1.766 c -0.274,-1.34 0.594,-2.648 1.937,-2.918 l 4.328,-0.875 c 1.356,-0.277 2.653,0.605 2.922,1.937 l 2.028,10.032 c 0.234,1.152 -0.375,2.281 -1.403,2.746 h 2.426 c 0.598,0 1.082,0.484 1.082,1.082 0,0.594 -0.484,1.078 -1.082,1.078 h -0.801 c -0.047,0.176 -0.14,0.34 -0.277,0.48 l -3.223,3.223 3.223,3.227 c 0.422,0.422 0.422,1.105 0,1.527 -0.422,0.422 -1.105,0.422 -1.527,0 l -3.223,-3.227 -1.785,1.782 c -0.192,1.617 -2.031,2.097 -2.805,1.578 -0.484,-0.223 -0.883,-0.637 -1.062,-1.18 l -3.098,-9.277 c -0.375,-1.129 0.316,-2.336 1.477,-2.582 1.097,-0.235 0.171,-0.145 4.875,-0.422 0.961,-0.059 1.738,-0.727 1.984,-1.606 l 1.727,-6.261 -3.165,5.426 c -0.281,0.48 -0.781,0.789 -1.335,0.82 z m 5.363,6.492 h -4.356 l 2.18,2.176 z m -3.703,3.703 -1.739,-1.734 0.871,2.601 z"
         style="fill:#4d4d4d;fill-opacity:1;fill-rule:nonzero;stroke:none"
         id="path44" />
      <path
         d="m 646.238,345.895 c 2.586,-2.157 1.973,-4.04 1.555,-4.793 -0.086,-0.157 0.043,-0.344 0.223,-0.321 0.851,0.117 2.652,0.711 3.074,3.66 0,0.004 0,0.008 0,0.016 0.531,-0.469 1.289,-0.555 1.883,-0.531 0.222,0.008 0.289,0.312 0.086,0.414 -2.395,1.172 0.664,3.492 1.222,5.469 0.727,2.562 -0.949,3.668 -1.883,4.074 -0.179,0.078 -0.367,-0.11 -0.285,-0.289 0.606,-1.36 0.086,-3.254 -0.847,-4.199 -0.946,-0.954 -1.075,-1.723 -0.981,-2.766 0.016,-0.188 -0.199,-0.313 -0.347,-0.199 -0.954,0.718 -1.336,2.359 -0.946,3.617 0.051,0.16 -0.09,0.312 -0.254,0.277 -0.347,-0.078 -0.843,-0.285 -1.097,-0.84 -0.051,-0.101 -0.164,-0.156 -0.27,-0.121 -1.281,0.446 -1.941,2.582 -1.406,4.379 0.051,0.172 -0.117,0.328 -0.285,0.266 -1.719,-0.633 -2.981,-5.16 0.558,-8.113 z"
         style="fill:#4d4d4d;fill-opacity:1;fill-rule:nonzero;stroke:none"
         id="path46" />
      <path
         d="m 28.512,355.172 c -0.762,0 -1.446,-0.297 -2.047,-0.891 -0.594,-0.601 -0.891,-1.285 -0.891,-2.047 v -56.796 c 0,-0.864 0.297,-1.594 0.891,-2.188 0.601,-0.602 1.285,-0.906 2.047,-0.906 H 64.48 c 4.125,0 7.676,-1.461 10.657,-4.391 2.988,-2.926 4.484,-6.453 4.484,-10.578 0,-4.238 -1.496,-7.82 -4.484,-10.75 -2.981,-2.926 -6.532,-4.391 -10.657,-4.391 H 28.512 c -0.762,0 -1.446,-0.296 -2.047,-0.89 -0.594,-0.602 -0.891,-1.336 -0.891,-2.203 v -14.969 c 0,-0.875 0.297,-1.61 0.891,-2.203 0.601,-0.594 1.285,-0.891 2.047,-0.891 H 64.48 c 6.508,0 12.532,1.633 18.063,4.891 5.539,3.25 9.937,7.672 13.187,13.265 3.258,5.586 4.891,11.633 4.891,18.141 0,6.512 -1.633,12.531 -4.891,18.063 -3.25,5.531 -7.648,9.929 -13.187,13.187 -5.531,3.25 -11.555,4.875 -18.063,4.875 H 47.23 c -1.199,0 -2.015,0.168 -2.453,0.5 -0.429,0.324 -0.64,0.977 -0.64,1.953 v 36.281 c 0,0.875 -0.305,1.586 -0.907,2.125 -0.593,0.543 -1.324,0.813 -2.187,0.813 z"
         style="fill:#4d4d4d;fill-opacity:1;fill-rule:nonzero;stroke:none"
         id="path48" />
      <path
         d="m 150.227,355.016 c -0.762,0 -1.438,-0.297 -2.032,-0.891 -0.593,-0.602 -0.89,-1.285 -0.89,-2.047 v -38.734 c 0,-2.282 -0.547,-4.614 -1.641,-7 -1.512,-2.602 -8.887,-16.926 -22.125,-42.969 l -9.766,-19.047 c -0.218,-0.437 -0.328,-0.816 -0.328,-1.14 0,-1.301 0.813,-1.954 2.438,-1.954 h 16.765 c 1.082,0 1.868,0.196 2.36,0.578 0.488,0.376 0.953,0.997 1.39,1.86 l 21.485,44.437 21.797,-44.921 c 0.332,-0.54 0.687,-1 1.062,-1.376 0.383,-0.382 1.063,-0.578 2.031,-0.578 h 17.094 c 2.281,0 3.039,0.871 2.281,2.61 -3.25,6.398 -8.433,16.543 -15.546,30.437 -7.106,13.887 -12.61,24.574 -16.516,32.063 -1.086,1.949 -1.684,4.281 -1.797,7 v 38.734 c 0,0.762 -0.273,1.445 -0.812,2.047 -0.543,0.594 -1.247,0.891 -2.11,0.891 z"
         style="fill:#4d4d4d;fill-opacity:1;fill-rule:nonzero;stroke:none"
         id="path50" />
      <path
         d="m 452.777,356.164 c -10.343,0 -19.882,-2.582 -28.609,-7.75 -8.73,-5.176 -15.656,-12.211 -20.781,-21.109 -5.117,-8.895 -7.672,-18.625 -7.672,-29.188 0,-10.457 2.555,-20.129 7.672,-29.015 5.125,-8.895 12.051,-15.957 20.781,-21.188 8.727,-5.226 18.266,-7.844 28.609,-7.844 8.301,0 16.086,1.672 23.36,5.016 7.281,3.344 13.562,7.93 18.843,13.75 0.438,0.43 0.657,0.965 0.657,1.609 0,0.762 -0.274,1.356 -0.813,1.782 l -11.64,10.031 c -0.543,0.531 -1.137,0.797 -1.782,0.797 -0.648,0 -1.183,-0.266 -1.609,-0.797 -3.461,-3.781 -7.531,-6.719 -12.219,-8.813 -4.687,-2.101 -9.621,-3.156 -14.797,-3.156 -6.679,0 -12.851,1.699 -18.515,5.094 -5.657,3.398 -10.157,8.008 -13.5,13.828 -3.336,5.812 -5,12.117 -5,18.906 0,6.793 1.664,13.102 5,18.922 3.343,5.824 7.843,10.434 13.5,13.828 5.664,3.399 11.836,5.094 18.515,5.094 4.957,0 9.645,-0.941 14.063,-2.828 4.426,-1.895 8.363,-4.567 11.812,-8.016 0.969,-0.851 1.993,-1.281 3.078,-1.281 0.969,0 1.723,0.266 2.266,0.797 l 3.063,2.594 6.468,5.812 c 1.082,0.762 1.625,1.789 1.625,3.078 0,0.75 -0.273,1.399 -0.812,1.938 -5.281,5.718 -11.508,10.168 -18.672,13.343 -7.168,3.18 -14.797,4.766 -22.891,4.766 z"
         style="fill:#4d4d4d;fill-opacity:1;fill-rule:nonzero;stroke:none"
         id="path52" />
      <path
         d="m 580.176,354.711 c -0.75,0 -1.449,-0.238 -2.094,-0.719 -0.648,-0.488 -1.078,-1.054 -1.297,-1.703 l -8.078,-30.078 c -0.324,-0.969 -0.918,-1.773 -1.781,-2.422 -0.867,-0.644 -1.781,-0.969 -2.75,-0.969 h -24.422 c -0.75,0 -1.371,-0.238 -1.859,-0.718 -0.481,-0.489 -0.719,-1.055 -0.719,-1.704 v -12.453 c 0,-0.644 0.238,-1.238 0.719,-1.781 0.488,-0.539 1.109,-0.812 1.859,-0.812 h 19.406 c 0.969,0 1.75,-0.348 2.344,-1.047 0.594,-0.696 0.726,-1.532 0.406,-2.5 l -9.062,-32.985 c -0.211,-0.863 -0.746,-1.617 -1.61,-2.265 -0.867,-0.645 -1.781,-0.969 -2.75,-0.969 h -1.125 c -0.867,0 -1.73,0.324 -2.593,0.969 -0.868,0.648 -1.403,1.402 -1.61,2.265 l -5.984,21.657 c -0.219,0.648 -0.625,1.132 -1.219,1.453 -0.594,0.324 -1.266,0.382 -2.016,0.172 l -15.203,-3.719 c -0.648,-0.113 -1.156,-0.492 -1.531,-1.141 -0.375,-0.644 -0.461,-1.289 -0.25,-1.937 l 10.188,-37.344 c 0.218,-0.645 0.675,-1.238 1.375,-1.781 0.695,-0.539 1.367,-0.813 2.015,-0.813 h 34.766 c 0.644,0 1.344,0.246 2.094,0.735 0.757,0.48 1.25,1.043 1.468,1.687 l 29.75,108.656 v 0.328 c 0,1.293 -0.648,1.938 -1.937,1.938 z"
         style="fill:#4d4d4d;fill-opacity:1;fill-rule:nonzero;stroke:none"
         id="path54" />
      <path
         d="m 713.234,241.852 c 0.75,0 1.395,0.296 1.938,0.89 0.539,0.594 0.812,1.324 0.812,2.188 v 106.703 c 0,0.867 -0.273,1.57 -0.812,2.109 -0.543,0.543 -1.188,0.813 -1.938,0.813 h -16.015 c -0.75,0 -1.399,-0.27 -1.938,-0.813 -0.543,-0.539 -0.812,-1.242 -0.812,-2.109 v -64.016 c 0,-0.976 -0.215,-1.469 -0.641,-1.469 -0.324,0 -0.808,0.383 -1.453,1.141 -1.73,2.586 -4.563,6.625 -8.5,12.125 -3.93,5.5 -6.809,9.492 -8.641,11.969 -1.074,1.398 -1.964,2.312 -2.672,2.75 -0.699,0.429 -1.855,0.64 -3.468,0.64 h -2.75 c -1.938,0 -3.262,-0.16 -3.969,-0.484 -0.699,-0.32 -1.48,-1.023 -2.344,-2.109 l -17.625,-24.735 c -0.429,-0.968 -0.914,-1.453 -1.453,-1.453 -0.43,0 -0.641,0.485 -0.641,1.453 v 20.047 c 0,0.867 -0.273,1.57 -0.812,2.11 -0.543,0.543 -1.188,0.812 -1.938,0.812 h -15.843 c -0.762,0 -1.438,-0.297 -2.031,-0.891 -0.586,-0.593 -0.876,-1.269 -0.876,-2.031 V 244.93 c 0,-0.864 0.29,-1.594 0.876,-2.188 0.593,-0.594 1.269,-0.89 2.031,-0.89 h 16.172 c 0.32,0 0.722,0.195 1.203,0.578 0.488,0.375 0.844,0.777 1.062,1.203 l 24.563,40.578 c 0.113,0.219 0.41,0.547 0.89,0.984 0.489,0.43 1.11,0.641 1.86,0.641 h 0.172 c 0.75,0 1.336,-0.27 1.765,-0.813 0.438,-0.539 0.707,-0.914 0.813,-1.125 l 24.422,-40.109 c 0.32,-0.531 0.644,-0.984 0.968,-1.359 0.321,-0.383 0.754,-0.578 1.297,-0.578 z"
         style="fill:#4d4d4d;fill-opacity:1;fill-rule:nonzero;stroke:none"
         id="path56" />
      <path
         d="m 747.473,354.711 c -0.75,0 -1.422,-0.297 -2.016,-0.891 -0.594,-0.593 -0.891,-1.265 -0.891,-2.015 v -56.438 c 0,-0.863 0.297,-1.586 0.891,-2.172 0.594,-0.593 1.266,-0.89 2.016,-0.89 h 35.734 c 4.094,0 7.617,-1.453 10.578,-4.36 2.969,-2.914 4.453,-6.422 4.453,-10.515 0,-4.207 -1.484,-7.766 -4.453,-10.672 -2.961,-2.914 -6.484,-4.375 -10.578,-4.375 h -35.734 c -0.75,0 -1.422,-0.297 -2.016,-0.891 -0.594,-0.594 -0.891,-1.316 -0.891,-2.172 v -14.875 c 0,-0.863 0.297,-1.593 0.891,-2.187 0.594,-0.594 1.266,-0.891 2.016,-0.891 h 35.734 c 6.469,0 12.445,1.621 17.938,4.86 5.5,3.23 9.863,7.621 13.093,13.171 3.239,5.555 4.86,11.563 4.86,18.032 0,6.468 -1.621,12.453 -4.86,17.953 -3.23,5.492 -7.593,9.855 -13.093,13.094 -5.493,3.23 -11.469,4.843 -17.938,4.843 h -17.141 c -1.187,0 -1.996,0.164 -2.421,0.485 -0.43,0.324 -0.641,0.968 -0.641,1.937 v 36.063 c 0,0.867 -0.297,1.57 -0.891,2.109 -0.593,0.531 -1.324,0.797 -2.187,0.797 z"
         style="fill:#4d4d4d;fill-opacity:1;fill-rule:nonzero;stroke:none"
         id="path58" />
      <path
         d="m 307.992,289.613 c -1.355,0.008 -2.621,0.121 -3.711,0.325 -3.199,0.593 -3.476,1.835 -2.863,4.128 l 0.812,3.028 h 7.942 l 0.269,1.008 H 299.52 c -2.309,0 -3.961,1.39 -3.887,4.027 0.082,3.027 0.555,4.918 2.164,8.074 1.195,2.352 2.992,4.027 5.301,4.027 h 2.734 l -0.973,-3.628 c -0.703,-2.622 0.946,-4.934 3.641,-4.934 h 7.934 c 2.207,0 3.484,-1.82 2.89,-4.039 l -2.027,-7.563 c -0.578,-2.152 -2.828,-3.769 -5.078,-4.128 -1.426,-0.227 -2.871,-0.333 -4.227,-0.325 z m -3.644,2.434 c 0.82,0 1.675,0.683 1.898,1.519 0.223,0.836 -0.266,1.508 -1.086,1.508 -0.824,0 -1.672,-0.672 -1.894,-1.508 -0.227,-0.836 0.257,-1.519 1.082,-1.519 z"
         style="fill:#4d4d4d;fill-opacity:1;fill-rule:nonzero;stroke:none"
         id="path60" />
      <path
         d="m 319.367,298.102 0.945,3.527 c 0.735,2.738 -0.968,5.039 -3.613,5.039 h -7.933 c -2.172,0 -3.473,1.859 -2.891,4.035 l 2.027,7.567 c 0.578,2.152 2.789,3.418 5.055,4.035 2.711,0.742 5.16,0.875 7.934,0 1.843,-0.578 3.504,-1.743 2.89,-4.035 l -0.812,-3.028 h -7.934 l -0.269,-1.012 h 11.906 c 2.308,0 2.738,-1.609 2.894,-4.027 0.161,-2.488 -0.515,-4.879 -2.164,-8.074 -1.187,-2.297 -2.742,-4.027 -5.05,-4.027 z m 0.672,19.16 c 0.824,0 1.672,0.672 1.895,1.508 0.226,0.835 -0.258,1.519 -1.082,1.519 -0.821,0 -1.676,-0.684 -1.899,-1.519 -0.223,-0.836 0.266,-1.508 1.086,-1.508 z"
         style="fill:#4d4d4d;fill-opacity:1;fill-rule:nonzero;stroke:none"
         id="path62" />
      <g
         id="g64"
         style="fill:#4d4d4d">
        <g
           id="g66"
           style="fill:#4d4d4d" />
        <g
           id="g116"
           style="fill:#4d4d4d">
          <g
             clip-path="url(#clipPath70)"
             opacity="0.44382"
             id="g114"
             style="fill:#4d4d4d">
            <g
               id="g112"
               style="fill:#4d4d4d">
              <g
                 id="g110"
                 style="fill:#4d4d4d">
                <g
                   clip-path="url(#clipPath74)"
                   id="g108"
                   style="fill:#4d4d4d">
                  <g
                     transform="matrix(-0.0190492,-0.0710927,0.312482,1.12338e-7,278.23136,331.82182)"
                     id="g106"
                     style="fill:#4d4d4d">
                    <g
                       id="g100"
                       style="fill:#4d4d4d" />
                    <g
                       mask="url(#mask86)"
                       id="g104"
                       style="fill:#4d4d4d">
                      <path
                         d="m 329.043,327.449 c 0.148,0.547 -0.832,1.071 -2.727,1.461 -1.894,0.387 -4.543,0.602 -7.367,0.602 -2.824,0 -5.59,-0.215 -7.691,-0.602 -2.098,-0.39 -3.363,-0.914 -3.508,-1.461 -0.148,-0.547 0.832,-1.074 2.727,-1.461 1.89,-0.386 4.543,-0.605 7.367,-0.605 2.824,0 5.59,0.219 7.691,0.605 2.098,0.387 3.36,0.914 3.508,1.461 z"
                         style="fill:#4d4d4d;stroke:none"
                         id="path102" />
                    </g>
                  </g>
                </g>
              </g>
            </g>
          </g>
        </g>
      </g>
      <path
         d="m 628.047,373.395 c -0.125,0 -0.199,-0.063 -0.219,-0.188 l -3.39,-14.203 -0.016,-0.094 c 0,-0.094 0.062,-0.14 0.187,-0.14 h 0.735 c 0.125,0 0.195,0.062 0.218,0.187 l 2.797,12.016 c 0.02,0.043 0.039,0.062 0.063,0.062 0.019,0 0.035,-0.019 0.047,-0.062 l 2.515,-12.016 c 0.02,-0.125 0.094,-0.187 0.219,-0.187 h 0.688 c 0.144,0 0.222,0.062 0.234,0.187 l 2.609,12.016 c 0.02,0.043 0.036,0.062 0.047,0.062 0.008,0 0.024,-0.019 0.047,-0.062 l 2.734,-12.016 c 0.02,-0.125 0.094,-0.187 0.219,-0.187 h 0.719 c 0.07,0 0.125,0.023 0.156,0.062 0.032,0.043 0.035,0.102 0.016,0.172 l -3.328,14.203 c -0.032,0.125 -0.11,0.188 -0.235,0.188 h -0.703 c -0.125,0 -0.203,-0.063 -0.234,-0.188 l -2.563,-12.109 c -0.023,-0.051 -0.039,-0.078 -0.047,-0.078 -0.011,0 -0.027,0.027 -0.046,0.078 l -2.547,12.109 c -0.012,0.125 -0.086,0.188 -0.219,0.188 z"
         style="fill:#4d4d4d;fill-opacity:1;fill-rule:nonzero;stroke:none"
         id="path118" />
      <path
         d="m 643.516,373.395 c -0.125,0 -0.2,-0.063 -0.219,-0.188 l -3.391,-14.203 -0.015,-0.094 c 0,-0.094 0.062,-0.14 0.187,-0.14 h 0.734 c 0.126,0 0.196,0.062 0.219,0.187 l 2.797,12.016 c 0.02,0.043 0.039,0.062 0.063,0.062 0.019,0 0.035,-0.019 0.047,-0.062 l 2.515,-12.016 c 0.02,-0.125 0.094,-0.187 0.219,-0.187 h 0.687 c 0.145,0 0.223,0.062 0.235,0.187 l 2.609,12.016 c 0.02,0.043 0.035,0.062 0.047,0.062 0.008,0 0.023,-0.019 0.047,-0.062 l 2.734,-12.016 c 0.02,-0.125 0.094,-0.187 0.219,-0.187 h 0.719 c 0.07,0 0.125,0.023 0.156,0.062 0.031,0.043 0.035,0.102 0.016,0.172 l -3.329,14.203 c -0.031,0.125 -0.109,0.188 -0.234,0.188 h -0.703 c -0.125,0 -0.203,-0.063 -0.234,-0.188 l -2.563,-12.109 c -0.023,-0.051 -0.039,-0.078 -0.047,-0.078 -0.011,0 -0.027,0.027 -0.047,0.078 l -2.546,12.109 c -0.012,0.125 -0.086,0.188 -0.219,0.188 z"
         style="fill:#4d4d4d;fill-opacity:1;fill-rule:nonzero;stroke:none"
         id="path120" />
      <path
         d="m 658.984,373.395 c -0.125,0 -0.199,-0.063 -0.218,-0.188 l -3.391,-14.203 -0.016,-0.094 c 0,-0.094 0.063,-0.14 0.188,-0.14 h 0.734 c 0.125,0 0.196,0.062 0.219,0.187 l 2.797,12.016 c 0.019,0.043 0.039,0.062 0.062,0.062 0.02,0 0.036,-0.019 0.047,-0.062 l 2.516,-12.016 c 0.019,-0.125 0.094,-0.187 0.219,-0.187 h 0.687 c 0.145,0 0.223,0.062 0.234,0.187 l 2.61,12.016 c 0.019,0.043 0.035,0.062 0.047,0.062 0.008,0 0.023,-0.019 0.047,-0.062 l 2.734,-12.016 c 0.02,-0.125 0.094,-0.187 0.219,-0.187 h 0.719 c 0.07,0 0.124,0.023 0.156,0.062 0.031,0.043 0.035,0.102 0.015,0.172 l -3.328,14.203 c -0.031,0.125 -0.109,0.188 -0.234,0.188 h -0.703 c -0.125,0 -0.203,-0.063 -0.235,-0.188 l -2.562,-12.109 c -0.024,-0.051 -0.039,-0.078 -0.047,-0.078 -0.012,0 -0.027,0.027 -0.047,0.078 l -2.547,12.109 c -0.011,0.125 -0.086,0.188 -0.218,0.188 z"
         style="fill:#4d4d4d;fill-opacity:1;fill-rule:nonzero;stroke:none"
         id="path122" />
      <path
         d="m 671.727,373.316 c -0.293,0 -0.543,-0.109 -0.75,-0.328 -0.2,-0.218 -0.297,-0.476 -0.297,-0.781 0,-0.289 0.101,-0.547 0.312,-0.766 0.207,-0.218 0.453,-0.328 0.735,-0.328 0.289,0 0.539,0.106 0.75,0.313 0.207,0.211 0.312,0.469 0.312,0.781 0,0.305 -0.105,0.563 -0.312,0.781 -0.211,0.219 -0.461,0.328 -0.75,0.328 z"
         style="fill:#4d4d4d;fill-opacity:1;fill-rule:nonzero;stroke:none"
         id="path124" />
      <path
         d="m 680.547,358.723 c 1.07,0 1.937,0.371 2.594,1.109 0.664,0.73 1,1.695 1,2.891 0,1.179 -0.336,2.125 -1,2.843 -0.657,0.711 -1.524,1.063 -2.594,1.063 h -3.313 c -0.062,0 -0.093,0.027 -0.093,0.078 v 6.484 c 0,0.137 -0.071,0.204 -0.203,0.204 h -0.688 c -0.148,0 -0.219,-0.067 -0.219,-0.204 v -14.25 c 0,-0.144 0.071,-0.218 0.219,-0.218 z m -0.109,6.984 c 0.781,0 1.41,-0.269 1.89,-0.812 0.488,-0.54 0.734,-1.258 0.734,-2.157 0,-0.914 -0.246,-1.644 -0.734,-2.187 -0.48,-0.539 -1.109,-0.813 -1.89,-0.813 h -3.204 c -0.062,0 -0.093,0.028 -0.093,0.078 v 5.813 c 0,0.055 0.031,0.078 0.093,0.078 z"
         style="fill:#4d4d4d;fill-opacity:1;fill-rule:nonzero;stroke:none"
         id="path126" />
      <path
         d="m 689.492,373.395 c -0.148,0 -0.219,-0.067 -0.219,-0.204 v -6.468 c 0,-0.051 -0.007,-0.082 -0.015,-0.094 l -3.61,-7.609 c -0.023,-0.032 -0.031,-0.067 -0.031,-0.11 0,-0.094 0.055,-0.14 0.172,-0.14 h 0.734 c 0.114,0 0.192,0.046 0.235,0.14 l 3.031,6.5 c 0.008,0.031 0.023,0.047 0.047,0.047 0.031,0 0.055,-0.016 0.078,-0.047 l 2.984,-6.5 c 0.04,-0.094 0.114,-0.14 0.219,-0.14 h 0.735 c 0.07,0 0.117,0.027 0.14,0.078 0.031,0.043 0.035,0.101 0.016,0.172 l -3.594,7.609 c -0.023,0.012 -0.031,0.043 -0.031,0.094 v 6.468 c 0,0.137 -0.071,0.204 -0.203,0.204 z"
         style="fill:#4d4d4d;fill-opacity:1;fill-rule:nonzero;stroke:none"
         id="path128" />
      <path
         d="m 700.074,373.566 c -1.219,0 -2.203,-0.363 -2.953,-1.093 -0.742,-0.739 -1.109,-1.707 -1.109,-2.907 v -7 c 0,-1.195 0.367,-2.156 1.109,-2.875 0.75,-0.726 1.734,-1.093 2.953,-1.093 1.238,0 2.227,0.367 2.969,1.093 0.75,0.719 1.125,1.672 1.125,2.86 v 0.187 c 0,0.074 -0.023,0.133 -0.063,0.172 -0.043,0.043 -0.089,0.063 -0.14,0.063 l -0.688,0.047 c -0.148,0 -0.218,-0.071 -0.218,-0.219 v -0.297 c 0,-0.875 -0.278,-1.578 -0.829,-2.109 -0.542,-0.54 -1.261,-0.813 -2.156,-0.813 -0.886,0 -1.605,0.273 -2.156,0.813 -0.543,0.531 -0.813,1.234 -0.813,2.109 v 7.125 c 0,0.898 0.27,1.617 0.813,2.156 0.551,0.531 1.27,0.797 2.156,0.797 0.906,0 1.629,-0.266 2.172,-0.797 0.539,-0.539 0.813,-1.258 0.813,-2.156 v -0.25 c 0,-0.133 0.07,-0.203 0.218,-0.203 l 0.688,0.047 c 0.051,0 0.097,0.015 0.14,0.047 0.04,0.031 0.063,0.078 0.063,0.14 v 0.188 c 0,1.199 -0.375,2.164 -1.125,2.89 -0.742,0.719 -1.731,1.078 -2.969,1.078 z"
         style="fill:#4d4d4d;fill-opacity:1;fill-rule:nonzero;stroke:none"
         id="path130" />
      <path
         d="m 714.59,373.395 c -0.125,0 -0.203,-0.063 -0.235,-0.188 l -0.75,-2.766 c -0.011,-0.039 -0.046,-0.062 -0.109,-0.062 h -5.266 c -0.054,0 -0.085,0.023 -0.093,0.062 l -0.735,2.766 c -0.031,0.125 -0.109,0.188 -0.234,0.188 h -0.703 c -0.074,0 -0.133,-0.02 -0.172,-0.063 -0.031,-0.039 -0.039,-0.098 -0.016,-0.172 l 3.922,-14.219 c 0.031,-0.113 0.11,-0.171 0.235,-0.171 h 0.875 c 0.125,0 0.203,0.058 0.234,0.171 l 3.922,14.219 0.015,0.063 c 0,0.117 -0.07,0.172 -0.203,0.172 z m -6.156,-4.016 c -0.024,0.023 -0.024,0.043 0,0.062 0.019,0.024 0.046,0.032 0.078,0.032 h 4.718 c 0.032,0 0.055,-0.008 0.079,-0.032 0.019,-0.019 0.019,-0.039 0,-0.062 l -2.391,-8.938 c -0.023,-0.031 -0.039,-0.046 -0.047,-0.046 -0.012,0 -0.027,0.015 -0.047,0.046 z"
         style="fill:#4d4d4d;fill-opacity:1;fill-rule:nonzero;stroke:none"
         id="path132" />
      <path
         d="m 718.473,373.395 c -0.149,0 -0.219,-0.067 -0.219,-0.204 v -14.218 c 0,-0.133 0.07,-0.203 0.219,-0.203 h 0.718 c 0.133,0 0.223,0.046 0.266,0.14 l 3.25,6.438 c 0.008,0.031 0.031,0.047 0.063,0.047 0.031,0 0.05,-0.016 0.062,-0.047 l 3.281,-6.438 c 0.039,-0.094 0.125,-0.14 0.25,-0.14 h 0.719 c 0.133,0 0.203,0.07 0.203,0.203 v 14.218 c 0,0.137 -0.07,0.204 -0.203,0.204 h -0.703 c -0.137,0 -0.203,-0.067 -0.203,-0.204 v -11.875 c 0,-0.039 -0.012,-0.062 -0.031,-0.062 -0.024,0 -0.047,0.016 -0.079,0.047 l -2.859,5.625 c -0.043,0.094 -0.125,0.14 -0.25,0.14 h -0.312 c -0.125,0 -0.211,-0.046 -0.25,-0.14 l -2.922,-5.641 c -0.032,-0.031 -0.059,-0.047 -0.078,-0.047 -0.024,0 -0.032,0.024 -0.032,0.063 v 11.89 c 0,0.137 -0.07,0.204 -0.203,0.204 z"
         style="fill:#4d4d4d;fill-opacity:1;fill-rule:nonzero;stroke:none"
         id="path134" />
      <path
         d="m 735.277,358.723 c 1.071,0 1.938,0.371 2.594,1.109 0.664,0.73 1,1.695 1,2.891 0,1.179 -0.336,2.125 -1,2.843 -0.656,0.711 -1.523,1.063 -2.594,1.063 h -3.312 c -0.063,0 -0.094,0.027 -0.094,0.078 v 6.484 c 0,0.137 -0.07,0.204 -0.203,0.204 h -0.688 c -0.148,0 -0.218,-0.067 -0.218,-0.204 v -14.25 c 0,-0.144 0.07,-0.218 0.218,-0.218 z m -0.109,6.984 c 0.781,0 1.41,-0.269 1.891,-0.812 0.488,-0.54 0.734,-1.258 0.734,-2.157 0,-0.914 -0.246,-1.644 -0.734,-2.187 -0.481,-0.539 -1.11,-0.813 -1.891,-0.813 h -3.203 c -0.063,0 -0.094,0.028 -0.094,0.078 v 5.813 c 0,0.055 0.031,0.078 0.094,0.078 z"
         style="fill:#4d4d4d;fill-opacity:1;fill-rule:nonzero;stroke:none"
         id="path136" />
      <path
         d="m 741.152,373.316 c -0.293,0 -0.543,-0.109 -0.75,-0.328 -0.199,-0.218 -0.297,-0.476 -0.297,-0.781 0,-0.289 0.102,-0.547 0.313,-0.766 0.207,-0.218 0.453,-0.328 0.734,-0.328 0.289,0 0.539,0.106 0.75,0.313 0.207,0.211 0.313,0.469 0.313,0.781 0,0.305 -0.106,0.563 -0.313,0.781 -0.211,0.219 -0.461,0.328 -0.75,0.328 z"
         style="fill:#4d4d4d;fill-opacity:1;fill-rule:nonzero;stroke:none"
         id="path138" />
      <path
         d="m 753.359,359.551 c 0,0.137 -0.074,0.203 -0.218,0.203 h -6.407 c -0.054,0 -0.078,0.027 -0.078,0.078 v 5.672 c 0,0.055 0.024,0.078 0.078,0.078 h 4.391 c 0.133,0 0.203,0.07 0.203,0.203 v 0.563 c 0,0.148 -0.07,0.218 -0.203,0.218 h -4.391 c -0.054,0 -0.078,0.028 -0.078,0.079 v 5.687 c 0,0.055 0.024,0.078 0.078,0.078 h 6.407 c 0.144,0 0.218,0.074 0.218,0.219 v 0.562 c 0,0.137 -0.074,0.204 -0.218,0.204 h -7.391 c -0.137,0 -0.203,-0.067 -0.203,-0.204 v -14.218 c 0,-0.133 0.066,-0.203 0.203,-0.203 h 7.391 c 0.144,0 0.218,0.07 0.218,0.203 z"
         style="fill:#4d4d4d;fill-opacity:1;fill-rule:nonzero;stroke:none"
         id="path140" />
      <path
         d="m 759.844,373.566 c -1.25,0 -2.25,-0.336 -3,-1.015 -0.742,-0.676 -1.11,-1.578 -1.11,-2.703 v -0.594 c 0,-0.133 0.067,-0.203 0.204,-0.203 h 0.656 c 0.133,0 0.203,0.07 0.203,0.203 v 0.531 c 0,0.836 0.281,1.512 0.844,2.031 0.562,0.512 1.312,0.766 2.25,0.766 0.906,0 1.613,-0.238 2.125,-0.719 0.519,-0.476 0.781,-1.125 0.781,-1.937 0,-0.508 -0.121,-0.957 -0.359,-1.344 -0.243,-0.383 -0.59,-0.734 -1.047,-1.047 -0.45,-0.32 -1.09,-0.707 -1.922,-1.156 -0.887,-0.488 -1.571,-0.906 -2.047,-1.25 -0.469,-0.344 -0.852,-0.754 -1.141,-1.234 -0.293,-0.477 -0.437,-1.071 -0.437,-1.782 0,-1.101 0.344,-1.961 1.031,-2.578 0.687,-0.625 1.625,-0.937 2.813,-0.937 1.257,0 2.253,0.351 2.984,1.047 0.738,0.687 1.109,1.601 1.109,2.734 v 0.5 c 0,0.148 -0.074,0.219 -0.219,0.219 h -0.671 c -0.137,0 -0.203,-0.071 -0.203,-0.219 v -0.453 c 0,-0.864 -0.274,-1.551 -0.813,-2.063 -0.543,-0.519 -1.289,-0.781 -2.234,-0.781 -0.836,0 -1.496,0.219 -1.985,0.656 -0.492,0.438 -0.734,1.063 -0.734,1.875 0,0.512 0.109,0.946 0.328,1.297 0.219,0.344 0.531,0.656 0.938,0.938 0.406,0.281 1.035,0.652 1.89,1.109 0.938,0.512 1.664,0.961 2.188,1.344 0.519,0.375 0.922,0.804 1.203,1.281 0.289,0.48 0.437,1.059 0.437,1.734 0,1.137 -0.371,2.047 -1.109,2.735 -0.731,0.679 -1.715,1.015 -2.953,1.015 z"
         style="fill:#4d4d4d;fill-opacity:1;fill-rule:nonzero;stroke:none"
         id="path142" />
    </g>
  </g>
</svg>
