<?xml version="1.0" encoding="UTF-8" standalone="no"?>
<!-- Created with Inkscape (http://www.inkscape.org/) -->

<svg
   xmlns:dc="http://purl.org/dc/elements/1.1/"
   xmlns:cc="http://creativecommons.org/ns#"
   xmlns:rdf="http://www.w3.org/1999/02/22-rdf-syntax-ns#"
   xmlns:svg="http://www.w3.org/2000/svg"
   xmlns="http://www.w3.org/2000/svg"
   xmlns:xlink="http://www.w3.org/1999/xlink"
   xmlns:sodipodi="http://sodipodi.sourceforge.net/DTD/sodipodi-0.dtd"
   xmlns:inkscape="http://www.inkscape.org/namespaces/inkscape"
   width="279.93594mm"
   height="59.490723mm"
   viewBox="0 0 279.93594 59.490723"
   version="1.1"
   id="svg8"
   inkscape:version="0.92.4 (5da689c313, 2019-01-14)"
   sodipodi:docname="LOGO-PYCAMPES2019.svg"
   inkscape:export-filename="/home/ellaquimica/Escritorio/pycampm/LOGO-PYCAMPES2019.PNG"
   inkscape:export-xdpi="300"
   inkscape:export-ydpi="300">
  <defs
     id="defs2">
    <linearGradient
       id="linearGradient2795">
      <stop
         id="stop2797"
         offset="0"
         style="stop-color:#b8b8b8;stop-opacity:0.49803922" />
      <stop
         id="stop2799"
         offset="1"
         style="stop-color:#7f7f7f;stop-opacity:0" />
    </linearGradient>
    <linearGradient
       id="linearGradient2787">
      <stop
         id="stop2789"
         offset="0"
         style="stop-color:#7f7f7f;stop-opacity:0.5" />
      <stop
         id="stop2791"
         offset="1"
         style="stop-color:#7f7f7f;stop-opacity:0" />
    </linearGradient>
    <linearGradient
       id="linearGradient3676">
      <stop
         id="stop3678"
         offset="0"
         style="stop-color:#b2b2b2;stop-opacity:0.5" />
      <stop
         id="stop3680"
         offset="1"
         style="stop-color:#b3b3b3;stop-opacity:0" />
    </linearGradient>
    <linearGradient
       id="linearGradient3236">
      <stop
         id="stop3244"
         offset="0"
         style="stop-color:#f4f4f4;stop-opacity:1" />
      <stop
         id="stop3240"
         offset="1"
         style="stop-color:#ffffff;stop-opacity:1" />
    </linearGradient>
    <linearGradient
       id="linearGradient4671">
      <stop
         id="stop4673"
         offset="0"
         style="stop-color:#ffd43b;stop-opacity:1" />
      <stop
         id="stop4675"
         offset="1"
         style="stop-color:#ffe873;stop-opacity:1" />
    </linearGradient>
    <linearGradient
       id="linearGradient4689">
      <stop
         id="stop4691"
         offset="0"
         style="stop-color:#5a9fd4;stop-opacity:1" />
      <stop
         id="stop4693"
         offset="1"
         style="stop-color:#306998;stop-opacity:1" />
    </linearGradient>
    <linearGradient
       gradientTransform="translate(100.2702,99.61116)"
       gradientUnits="userSpaceOnUse"
       xlink:href="#linearGradient4671"
       id="linearGradient2987"
       y2="144.75717"
       x2="-65.308502"
       y1="144.75717"
       x1="224.23996" />
    <linearGradient
       gradientTransform="translate(100.2702,99.61116)"
       gradientUnits="userSpaceOnUse"
       xlink:href="#linearGradient4689"
       id="linearGradient2990"
       y2="76.313133"
       x2="26.670298"
       y1="77.475983"
       x1="172.94208" />
    <linearGradient
       gradientTransform="matrix(0.562541,0,0,0.567972,-11.5974,-7.60954)"
       gradientUnits="userSpaceOnUse"
       xlink:href="#linearGradient4671"
       id="linearGradient2255"
       y2="144.75717"
       x2="-65.308502"
       y1="144.75717"
       x1="224.23996" />
    <linearGradient
       gradientTransform="matrix(0.562541,0,0,0.567972,-11.5974,-7.60954)"
       gradientUnits="userSpaceOnUse"
       xlink:href="#linearGradient4689"
       id="linearGradient2258"
       y2="76.313133"
       x2="26.670298"
       y1="76.176224"
       x1="172.94208" />
    <radialGradient
       gradientTransform="matrix(1,0,0,0.177966,0,108.7434)"
       gradientUnits="userSpaceOnUse"
       xlink:href="#linearGradient2795"
       id="radialGradient2801"
       fy="132.28575"
       fx="61.518883"
       r="29.036913"
       cy="132.28575"
       cx="61.518883" />
    <linearGradient
       gradientTransform="matrix(0.11993462,0,0,0.12109253,47.11923,217.94708)"
       gradientUnits="userSpaceOnUse"
       xlink:href="#linearGradient4671"
       id="linearGradient1475"
       y2="137.27299"
       x2="112.03144"
       y1="192.35176"
       x1="150.96111" />
    <linearGradient
       gradientTransform="matrix(0.11993462,0,0,0.12109253,47.11923,217.94708)"
       gradientUnits="userSpaceOnUse"
       xlink:href="#linearGradient4689"
       id="linearGradient1478"
       y2="114.39767"
       x2="135.66525"
       y1="20.603781"
       x1="26.648937" />
    <radialGradient
       gradientTransform="matrix(0,-0.05115707,0.22485689,8.0836356e-8,32.470217,250.81516)"
       gradientUnits="userSpaceOnUse"
       xlink:href="#linearGradient2795"
       id="radialGradient1480"
       fy="132.28575"
       fx="61.518883"
       r="29.036913"
       cy="132.28575"
       cx="61.518883" />
  </defs>
  <sodipodi:namedview
     id="base"
     pagecolor="#ffffff"
     bordercolor="#666666"
     borderopacity="1.0"
     inkscape:pageopacity="0.0"
     inkscape:pageshadow="2"
     inkscape:zoom="0.66775794"
     inkscape:cx="257.46994"
     inkscape:cy="140.85549"
     inkscape:document-units="mm"
     inkscape:current-layer="layer1"
     showgrid="false"
     borderlayer="true"
     showguides="true"
     inkscape:guide-bbox="true"
     inkscape:window-width="1920"
     inkscape:window-height="1025"
     inkscape:window-x="0"
     inkscape:window-y="27"
     inkscape:window-maximized="1">
    <sodipodi:guide
       position="171.12738,17.446176"
       orientation="0,1"
       id="guide1288"
       inkscape:locked="false" />
  </sodipodi:namedview>
  <metadata
     id="metadata5">
    <rdf:RDF>
      <cc:Work
         rdf:about="">
        <dc:format>image/svg+xml</dc:format>
        <dc:type
           rdf:resource="http://purl.org/dc/dcmitype/StillImage" />
        <dc:title></dc:title>
      </cc:Work>
    </rdf:RDF>
  </metadata>
  <g
     inkscape:label="Capa 1"
     inkscape:groupmode="layer"
     id="layer1"
     transform="translate(-9.0247467,-169.78244)">
    <g
       id="g125"
       transform="matrix(0.95943491,0,0,0.95943491,75.039591,168.82301)"
       style="fill:#ffffff">
      <path
         id="path94"
         transform="matrix(0.918,-0.397,0.397,0.918,-12.138,14.593)"
         d="m 28.147,35.588 h 2.001 v 2 h -2.001 z"
         inkscape:connector-curvature="0"
         style="fill:#ffffff" />
      <path
         id="path96"
         transform="matrix(0.918,-0.398,0.398,0.918,-13.445,15.526)"
         d="M 29.699,39.265 H 31.7 v 1.809 h -2.001 z"
         inkscape:connector-curvature="0"
         style="fill:#ffffff" />
      <path
         id="path98"
         transform="matrix(0.918,-0.397,0.397,0.918,-10.811,13.659)"
         d="m 26.556,31.918 h 2.001 v 2 h -2.001 z"
         inkscape:connector-curvature="0"
         style="fill:#ffffff" />
      <path
         id="path100"
         d="m 41,17 v 2 h 4.762 l 3.326,7.419 1.824,-0.818 L 47.057,17 Z"
         inkscape:connector-curvature="0"
         style="fill:#ffffff" />
      <path
         id="path102"
         d="m 8,15 c 3.859,0 7,-3.141 7,-7 C 15,4.141 11.859,1 8,1 H 7 V 2.756 L 7.251,3.039 C 7.734,3.586 8,4.282 8,5 8,6.654 6.654,8 5,8 4.282,8 3.586,7.734 3.039,7.251 L 2.756,7 H 1 v 1 c 0,3.859 3.141,7 7,7 z M 5,10 C 7.757,10 10,7.757 10,5 10,4.414 9.896,3.838 9.695,3.296 11.62,3.992 13,5.838 13,8 13,10.757 10.757,13 8,13 5.838,13 3.992,11.62 3.296,9.695 3.838,9.896 4.414,10 5,10 Z"
         inkscape:connector-curvature="0"
         style="fill:#ffffff" />
      <path
         id="path104"
         d="M 60.001,21.107 60.003,21 c 0,-0.797 -0.192,-1.562 -0.536,-2.245 C 61.505,18.124 63,16.243 63,14 63,12.759 62.534,11.578 61.702,10.664 61.9,10.124 62,9.566 62,9 62,6.243 59.757,4 57,4 56.431,4 55.876,4.107 55.347,4.292 54.355,2.342 52.334,1 50,1 48.667,1 47.376,1.456 46.328,2.277 45.42,1.464 44.236,1 43,1 40.887,1 39.076,2.32 38.35,4.209 37.918,4.086 37.471,4 37,4 c -2.757,0 -5,2.243 -5,5 0,0.572 0.105,1.138 0.295,1.673 -0.584,0.649 -1.013,1.44 -1.194,2.327 H 14.353 L 1,42.786 V 45 H 35.703 C 35.287,45.894 35,46.89 35,48.049 c 0,1.545 0.507,2.955 1.387,4.15 l -9.094,9.094 1.414,1.414 9.057,-9.057 c 0.501,0.411 1.061,0.776 1.671,1.089 l -4.278,6.724 1.688,1.074 4.486,-7.05 c 0.824,0.242 1.701,0.409 2.627,0.476 L 44,63.006 46,62.994 45.957,55.97 c 1.118,-0.06 2.145,-0.221 3.075,-0.477 l 5.159,7.095 1.617,-1.176 -4.84,-6.656 c 0.53,-0.269 1.011,-0.581 1.442,-0.932 l 8.883,8.883 1.414,-1.414 -8.945,-8.945 C 54.566,51.164 55,49.723 55,48.049 55,47.011 54.767,45.994 54.41,45 H 63 V 42.786 L 55.449,25.941 c 2.526,-0.291 4.522,-2.349 4.552,-4.834 z M 36,11 V 9 C 35.308,9 34.649,9.142 34.049,9.397 34.031,9.265 34,9.136 34,9 c 0,-1.654 1.346,-3 3,-3 1.654,0 3,1.346 3,3 h 2 C 42,7.433 41.261,6.05 40.129,5.132 40.502,3.886 41.654,3 43,3 c 0.97,0 1.886,0.479 2.45,1.279 l 0.729,1.033 0.837,-0.947 C 47.795,3.485 48.854,3 50,3 c 2.206,0 4,1.794 4,4 0,2.206 -1.794,4 -4,4 v 2 c 3.309,0 6,-2.691 6,-6 C 56,6.728 55.976,6.463 55.94,6.201 56.277,6.073 56.633,6 57,6 c 1.654,0 3,1.346 3,3 0,0.482 -0.128,0.961 -0.379,1.422 l -0.399,0.732 0.649,0.524 C 60.589,12.258 61,13.104 61,14 c 0,1.654 -1.346,3 -3,3 v 0.003 c -0.393,-0.296 -0.832,-0.539 -1.311,-0.711 l -0.674,1.883 c 1.188,0.426 1.987,1.562 1.986,2.87 C 57.981,22.675 56.567,24 54.849,24 h -0.27 L 49.648,13 H 33.184 C 33.598,11.839 34.698,11 36,11 Z M 23.451,40.578 C 18.646,34.812 16,27.504 16,20 V 18.824 L 26.476,43 H 25.468 Z M 22.865,43 H 7.135 L 8.086,41.859 C 11.42,37.858 13.767,33.156 15,28.155 c 1.233,5 3.58,9.702 6.914,13.703 z M 14,18.675 V 20 c 0,7.504 -2.646,14.812 -7.451,20.579 L 4.532,43 H 3.096 Z m 23,29.374 c 0,-1.816 0.982,-3.158 2.021,-4.579 0.686,-0.935 1.387,-1.893 1.741,-2.978 C 41.384,40.857 42,41.385 42,42 v 1 h 2 v -1 c 0,-0.721 -0.253,-1.332 -0.626,-1.841 0.796,-1.911 2.691,-3.133 3.893,-3.744 0.431,1.236 1.334,2.579 2.335,4.068 1.592,2.369 3.398,5.053 3.398,7.566 0,2.852 -1.532,4.363 -3.409,5.15 C 49.85,52.616 50,51.976 50,51.299 50,50.236 49.634,49.192 48.97,48.361 L 45,43.399 41.031,48.361 C 40.366,49.191 40,50.235 40,51.299 c 0,0.579 0.119,1.127 0.312,1.64 C 38.282,51.882 37,50.123 37,48.049 Z M 44.951,54 C 44.821,54 44.695,53.991 44.567,53.986 43.141,53.915 42,52.742 42,51.299 c 0,-0.611 0.21,-1.211 0.593,-1.688 L 45,46.601 47.408,49.612 C 47.79,50.088 48,50.688 48,51.299 48,52.764 46.825,53.955 45.369,53.993 45.227,53.996 45.085,54 44.951,54 Z M 53.514,43 C 52.841,41.733 52.033,40.515 51.261,39.367 50.149,37.714 49,36.005 49,35 v -1.398 l -1.323,0.452 c -0.187,0.063 -4.128,1.444 -5.868,4.74 -0.761,-0.456 -1.442,-0.678 -1.507,-0.698 L 39,37.683 v 1.366 c 0,1.065 -0.737,2.073 -1.592,3.24 C 37.239,42.52 37.067,42.758 36.896,43 H 28.657 L 16.524,15 h 31.829 l 12.552,28 z"
         inkscape:connector-curvature="0"
         style="fill:#ffffff" />
      <path
         id="path106"
         d="m 37,17 h 2 v 2 h -2 z"
         inkscape:connector-curvature="0"
         style="fill:#ffffff" />
      <path
         id="path108"
         d="m 33,17 h 2 v 2 h -2 z"
         inkscape:connector-curvature="0"
         style="fill:#ffffff" />
    </g>
    <g
       id="g1286"
       transform="translate(25.029737,-1.4169059)"
       style="fill:#ffffff">
      <path
         style="stroke-width:0.03701697;fill:#ffffff"
         inkscape:connector-curvature="0"
         d="m 196.7004,209.13991 v 3.43399 c 0,0.40549 -0.32871,0.7342 -0.7342,0.7342 -0.40548,0 -0.73419,-0.32871 -0.73419,-0.7342 v -3.85524 c 0.47374,0.29421 0.98461,0.43436 1.46839,0.42125 z"
         id="path2" />
      <path
         style="stroke-width:0.03701697;fill:#ffffff"
         inkscape:connector-curvature="0"
         d="m 198.68725,207.19408 c 0.001,-0.0129 0.003,-0.0254 0.006,-0.0378 l 0.91251,1.66002 c 0.0539,0.0981 0.0847,0.2073 0.09,0.31916 l 0.16017,3.40397 c 0.0191,0.40504 -0.29381,0.74886 -0.69885,0.76792 -0.0118,5.6e-4 -0.0234,8.2e-4 -0.0351,8.2e-4 -0.38957,-4e-5 -0.71425,-0.30643 -0.73279,-0.69966 l -0.15218,-3.23399 -0.35188,-0.64013 c 0.48414,-0.36718 0.7557,-0.92387 0.80264,-1.54028 z"
         id="path4" />
      <circle
         style="stroke-width:0.03701697;fill:#ffffff"
         transform="scale(-1,1)"
         cx="-196.85872"
         cy="199.67838"
         r="1.2680163"
         id="circle6" />
      <path
         style="stroke-width:0.03701697;fill:#ffffff"
         inkscape:connector-curvature="0"
         d="m 202.03188,203.77967 -1.7659,0.89781 c -0.005,-0.0195 -0.01,-0.0391 -0.015,-0.0587 l 1.15881,-0.90788 c 0.18457,0.0917 0.40441,0.12182 0.62204,0.0687 z"
         id="path8" />
      <path
         style="stroke-width:0.03701697;fill:#ffffff"
         inkscape:connector-curvature="0"
         d="m 195.56572,206.57778 0.71261,0.90962 c 0.11064,0.14122 0.31487,0.16613 0.45623,0.0554 0.14126,-0.11068 0.1661,-0.31494 0.0554,-0.45624 l -0.12393,-0.15821 c 0.31238,-0.0528 0.59508,-0.22762 0.78061,-0.49036 0.11779,-0.16673 0.18942,-0.3564 0.212,-0.55374 0.12752,0.01 0.2589,-0.0256 0.3675,-0.11072 0.23058,-0.1806 0.27104,-0.51398 0.0904,-0.74452 -0.1809,-0.23087 -0.51987,-0.27496 -0.75485,-0.0814 -0.06,-0.0669 -0.12767,-0.12774 -0.20285,-0.18086 l -0.49385,-0.34874 c 0.41248,-0.25042 0.29566,-0.53375 0.67323,-0.82955 4e-5,-4e-5 7e-5,-4e-5 1.1e-4,-1.1e-4 0.50273,-0.39334 1.21901,-0.22425 1.71048,0.19423 0.20308,-0.1591 1.68631,-1.32114 1.89075,-1.48131 l -0.12012,-0.15332 c -0.11068,-0.1413 -0.0859,-0.34556 0.0554,-0.45624 0.14118,-0.1106 0.34533,-0.0851 0.45549,0.0546 2.2e-4,2.5e-4 4.8e-4,5.1e-4 7.4e-4,8.1e-4 l 0.12012,0.15332 c 0.0236,-0.0185 0.004,-0.003 0.10232,-0.0801 l -0.12012,-0.15332 c -0.11068,-0.14126 -0.0859,-0.34556 0.0554,-0.45624 0.1393,-0.10909 0.34463,-0.087 0.45624,0.0554 l 0.12012,0.15329 0.0597,-0.0468 c 0.16383,-0.12833 0.39763,-0.11075 0.54056,0.0355 0.17101,0.17502 0.14936,0.45597 -0.0395,0.60397 l -0.0597,0.0468 0.12012,0.15333 c 0.11068,0.14125 0.0859,0.34555 -0.0554,0.45623 -0.14266,0.11168 -0.34692,0.0841 -0.45624,-0.0554 l -0.12012,-0.15332 -0.10231,0.0801 0.12012,0.15333 c 0.11257,0.14366 0.0861,0.35554 -0.0678,0.46511 -0.14155,0.10073 -0.33604,0.0722 -0.44313,-0.0634 -2.2e-4,-3e-4 -4.8e-4,-5.2e-4 -7.4e-4,-8.2e-4 l -0.12012,-0.15332 -1.89075,1.48131 c 0.17116,0.34233 0.24605,0.749 0.15188,1.11976 -0.10953,0.43106 -0.43269,0.72683 -0.85206,0.79401 -0.41277,0.0662 -0.71713,0.40878 -0.74796,0.8136 -0.0328,0.4311 -0.21052,0.83462 -0.55489,1.10425 -1.1e-4,1.1e-4 -2.2e-4,1.5e-4 -3.3e-4,2.6e-4 -0.87823,0.68752 -2.35554,0.1403 -2.99156,-1.12072 -0.2214,-0.43928 -0.32649,-0.95067 -0.23188,-1.43304 z"
         id="path10" />
      <path
         style="stroke-width:0.03701697;fill:#ffffff"
         inkscape:connector-curvature="0"
         d="m 193.76532,202.79113 c 0.004,-0.79434 0.65354,-1.44055 1.44788,-1.44055 0,0 2.74341,0 3.29107,0 0.61748,0 1.12872,0.40326 1.35834,1.04825 l -0.83703,0.65579 c -0.0925,-0.0514 -0.18742,-0.0956 -0.2837,-0.133 -0.003,-0.0144 -0.0361,-0.091 -0.078,-0.18535 -0.0192,-0.0432 -0.066,-0.0671 -0.1122,-0.0573 -0.0462,0.01 -0.0794,0.0507 -0.0793,0.0979 l 8e-5,0.0597 c -0.15411,-0.0375 -0.31013,-0.0569 -0.46538,-0.0569 -0.38535,0 -0.74193,0.11975 -1.03115,0.34633 -0.21729,0.17028 -0.38342,0.38872 -0.49376,0.64935 -0.0477,0.11272 -0.15755,0.18553 -0.27982,0.18553 -0.0171,0 -0.1491,-0.0193 -0.22191,-0.0263 l -0.74871,-0.52871 v -0.60615 c 0,-0.0669 -0.0541,-0.1212 -0.12104,-0.12138 -0.0669,-1.9e-4 -0.12138,0.0538 -0.12172,0.12075 0,-4e-5 0,0 0,0 -0.005,0.56847 -0.004,0.48921 -0.009,1.14793 l 1.84019,1.29944 c 0.276,0.19493 0.34178,0.57665 0.14685,0.85269 -0.19345,0.27404 -0.57502,0.34296 -0.85269,0.14688 -0.21951,-0.15499 -1.86998,-1.32043 -2.10167,-1.48405 -0.16303,-0.11519 -0.26042,-0.30476 -0.2589,-0.50468 0.0103,-1.27776 0.007,-0.91706 0.0118,-1.46625 z"
         id="path12" />
    </g>
    <circle
       id="circle14"
       r="1.2940762"
       cy="201.13023"
       cx="-234.61084"
       transform="scale(-1,1)"
       style="stroke-width:0.03701697;fill:#ffffff" />
    <path
       id="path16"
       d="m 234.83926,206.50665 -2.33836,0.13774 c -0.32857,0.0182 -0.60097,-0.23157 -0.61978,-0.55081 -0.019,-0.32323 0.22758,-0.60071 0.55081,-0.61977 l 2.02457,-0.11927 0.95726,-1.64252 -1.06357,1.06146 -0.52209,0.0308 -0.12585,-0.62247 c -0.0957,-0.47327 0.21036,-0.93442 0.68359,-1.03011 l 1.52802,-0.30898 c 0.47811,-0.0967 0.93535,0.21488 1.03011,0.68359 l 0.71569,3.53938 c 0.0822,0.40678 -0.13249,0.80445 -0.49496,0.96892 h 0.85595 c 0.21036,0 0.3809,0.17053 0.3809,0.3809 0,0.21033 -0.17054,0.38091 -0.3809,0.38091 h -0.28252 c -0.0168,0.0619 -0.0493,0.12052 -0.0979,0.16916 l -1.13775,1.13772 1.13775,1.13772 c 0.14874,0.14877 0.14874,0.38993 0,0.53867 -0.14884,0.14877 -0.3899,0.14873 -0.53867,0 l -1.13775,-1.13772 -0.62866,0.62862 c -0.0683,0.56977 -0.71713,0.73912 -0.99006,0.5564 -0.17124,-0.0782 -0.31105,-0.22417 -0.37531,-0.41688 l -1.09204,-3.27297 c -0.13289,-0.39819 0.11079,-0.82325 0.52042,-0.91069 0.38724,-0.0827 0.0603,-0.0511 1.72059,-0.14888 0.33844,-0.0199 0.61326,-0.25627 0.69906,-0.56569 l 0.60904,-2.20936 -1.11558,1.91415 c -0.0988,0.16961 -0.27603,0.27851 -0.472,0.29002 z m 1.89275,2.28969 h -1.53639 l 0.76821,0.76817 z m -1.30688,1.30688 -0.61226,-0.61226 0.30635,0.91821 z"
       inkscape:connector-curvature="0"
       style="stroke-width:0.03701697;fill:#ffffff" />
    <path
       id="path18"
       d="m 227.97831,209.02444 c 0.91236,-0.76107 0.69607,-1.42593 0.54889,-1.6909 -0.0307,-0.0552 0.0152,-0.12201 0.0777,-0.11353 0.30106,0.0409 0.93697,0.25145 1.08448,1.29059 3e-4,0.002 3e-4,0.004 6e-4,0.006 0.18734,-0.16458 0.45497,-0.19504 0.66367,-0.18767 0.0794,0.003 0.10284,0.11119 0.0314,0.14618 -0.84561,0.41418 0.23354,1.23274 0.43117,1.93002 0.25612,0.90381 -0.33459,1.29367 -0.66401,1.43645 -0.0639,0.0277 -0.13018,-0.0375 -0.10179,-0.10102 0.21484,-0.48045 0.031,-1.14845 -0.29869,-1.48161 -0.33338,-0.33689 -0.37865,-0.60837 -0.34622,-0.97639 0.006,-0.0659 -0.0695,-0.1092 -0.12242,-0.0695 -0.33611,0.25272 -0.47019,0.83244 -0.33285,1.2755 0.0174,0.0562 -0.0324,0.11064 -0.0897,0.0979 -0.12209,-0.027 -0.29755,-0.0998 -0.38798,-0.29566 -0.0167,-0.0361 -0.057,-0.0562 -0.0945,-0.0432 -0.45212,0.15706 -0.68426,0.91143 -0.49577,1.54453 0.018,0.0603 -0.0418,0.11546 -0.10076,0.0938 -0.60622,-0.22321 -1.05132,-1.82083 0.19682,-2.86204 z"
       inkscape:connector-curvature="0"
       style="stroke-width:0.03701697;fill:#ffffff" />
    <text
       xml:space="preserve"
       style="font-style:normal;font-variant:normal;font-weight:500;font-stretch:condensed;font-size:57.42193222px;line-height:1.25;font-family:'Barlow Condensed';-inkscape-font-specification:'Barlow Condensed, Medium Condensed';letter-spacing:0px;word-spacing:0px;fill:#ffffff;fill-opacity:1;stroke:none;stroke-width:1.34582651;"
       x="4.4309921"
       y="212.29698"
       id="text331"><tspan
         sodipodi:role="line"
         id="tspan329"
         x="4.4309921"
         y="212.29698"
         style="stroke-width:1.34582651;fill:#ffffff;"><tspan
   style="font-style:normal;font-variant:normal;font-weight:normal;font-stretch:normal;font-family:LEIXO;-inkscape-font-specification:LEIXO;stroke-width:1.34582651;fill:#ffffff;"
   id="tspan337">Py</tspan> </tspan></text>
    <text
       xml:space="preserve"
       style="font-style:normal;font-variant:normal;font-weight:500;font-stretch:condensed;font-size:0.57725513px;line-height:1.25;font-family:'Barlow Condensed';-inkscape-font-specification:'Barlow Condensed, Medium Condensed';letter-spacing:0px;word-spacing:0px;fill:#ffffff;fill-opacity:1;stroke:none;stroke-width:0.01352942;"
       x="135.88936"
       y="212.1346"
       id="text335"><tspan
         sodipodi:role="line"
         id="tspan333"
         x="135.88936"
         y="212.1346"
         style="font-style:normal;font-variant:normal;font-weight:normal;font-stretch:normal;font-size:57.04001617px;font-family:LEIXO;-inkscape-font-specification:LEIXO;stroke-width:0.01352942;fill:#ffffff;">CAMP</tspan></text>
    <g
       id="g1485"
       transform="matrix(0.49025327,0,0.13136297,0.49025327,49.287385,81.096412)"
       style="fill:#ffffff">
      <path
         inkscape:transform-center-y="58.153866"
         inkscape:transform-center-x="15.959186"
         d="m 62.02413,220.44224 c -0.977241,0.006 -1.910487,0.088 -2.731645,0.2332 -2.419031,0.42733 -2.858233,1.32186 -2.858233,2.97149 v 2.17864 h 5.716466 v 0.72623 H 56.434252 54.28891 c -1.661364,0 -3.116105,0.99858 -3.571127,2.8982 -0.524864,2.17743 -0.548144,3.53617 0,5.80975 0.406347,1.69236 1.376759,2.89821 3.038123,2.89821 h 1.965453 v -2.61172 c 0,-1.88681 1.632514,-3.55115 3.571126,-3.55115 h 5.709806 c 1.589406,0 2.858233,-1.30866 2.858233,-2.90487 v -5.44329 c 0,-1.54921 -1.306921,-2.71295 -2.858233,-2.97149 -0.982004,-0.16351 -2.000917,-0.23773 -2.978161,-0.2332 z m -3.091424,1.75225 c 0.590474,0 1.072672,0.49008 1.072672,1.09267 0,0.60043 -0.482198,1.08598 -1.072672,1.08598 -0.592589,0 -1.072668,-0.48555 -1.072668,-1.08598 0,-0.60259 0.480079,-1.09267 1.072668,-1.09267 z"
         style="fill:#ffffff;fill-opacity:1;stroke-width:0.21320157"
         id="path1948"
         inkscape:connector-curvature="0" />
      <path
         inkscape:transform-center-y="64.331539"
         inkscape:transform-center-x="9.8224335"
         d="m 68.573417,226.5518 v 2.53842 c 0,1.96803 -1.668494,3.62443 -3.571126,3.62443 h -5.709806 c -1.564011,0 -2.858233,1.33859 -2.858233,2.90487 v 5.44331 c 0,1.54919 1.347133,2.46041 2.858233,2.90486 1.809513,0.53208 3.54474,0.62823 5.709806,0 1.439142,-0.41666 2.858233,-1.25523 2.858233,-2.90486 v -2.17865 h -5.709806 v -0.72622 h 5.709806 2.858235 c 1.661364,0 2.280458,-1.15884 2.858231,-2.89821 0.596822,-1.79065 0.571427,-3.51266 0,-5.80975 -0.410581,-1.65389 -1.194754,-2.8982 -2.858231,-2.8982 z m -3.211348,13.7848 c 0.592588,0 1.072669,0.48555 1.072669,1.086 0,0.60259 -0.480083,1.09267 -1.072669,1.09267 -0.590472,0 -1.072672,-0.49008 -1.072672,-1.09267 0,-0.60045 0.482198,-1.086 1.072672,-1.086 z"
         style="fill:#ffffff;fill-opacity:1;stroke-width:0.21320157"
         id="path1950"
         inkscape:connector-curvature="0" />
      <path
         inkscape:transform-center-y="76.521923"
         inkscape:transform-center-x="12.831547"
         d="m 69.876122,247.66806 a 7.6605419,1.4854421 0 1 1 -15.321083,0 7.6605419,1.4854421 0 1 1 15.321083,0 z"
         style="opacity:0.44382019;fill:#ffffff;fill-opacity:1;fill-rule:nonzero;stroke:none;stroke-width:3.28700995;stroke-miterlimit:4;stroke-dasharray:none;stroke-opacity:1"
         id="path1894"
         inkscape:connector-curvature="0" />
    </g>
    <text
       xml:space="preserve"
       style="font-style:normal;font-variant:normal;font-weight:300;font-stretch:semi-condensed;font-size:7.37193394px;line-height:1.25;font-family:'Barlow Semi Condensed';-inkscape-font-specification:'Barlow Semi Condensed, Light Semi-Condensed';font-variant-ligatures:normal;font-variant-caps:normal;font-variant-numeric:normal;font-feature-settings:normal;text-align:start;letter-spacing:0px;word-spacing:0px;writing-mode:lr-tb;text-anchor:start;fill:#ffffff;fill-opacity:1;stroke:none;stroke-width:0.17277969;"
       x="220.06706"
       y="218.72583"
       id="text5196"><tspan
         sodipodi:role="line"
         id="tspan5194"
         x="220.06706"
         y="218.72583"
         style="font-style:normal;font-variant:normal;font-weight:300;font-stretch:semi-condensed;font-size:7.37193394px;font-family:'Barlow Semi Condensed';-inkscape-font-specification:'Barlow Semi Condensed, Light Semi-Condensed';font-variant-ligatures:normal;font-variant-caps:normal;font-variant-numeric:normal;font-feature-settings:normal;text-align:start;writing-mode:lr-tb;text-anchor:start;stroke-width:0.17277969;fill:#ffffff;">WWW.PYCAMP.ES</tspan></text>
  </g>
</svg>
