<?xml version="1.0" encoding="UTF-8" standalone="no"?>
<!-- Created with Inkscape (http://www.inkscape.org/) -->

<svg
   width="59.484966mm"
   height="59.490723mm"
   viewBox="0 0 59.484966 59.490723"
   version="1.1"
   id="svg106"
   inkscape:version="1.1.2 (0a00cf5339, 2022-02-04, custom)"
   sodipodi:docname="logo-mini.svg"
   xmlns:inkscape="http://www.inkscape.org/namespaces/inkscape"
   xmlns:sodipodi="http://sodipodi.sourceforge.net/DTD/sodipodi-0.dtd"
   xmlns="http://www.w3.org/2000/svg"
   xmlns:svg="http://www.w3.org/2000/svg">
  <sodipodi:namedview
     id="namedview108"
     pagecolor="#ffffff"
     bordercolor="#666666"
     borderopacity="1.0"
     inkscape:pageshadow="2"
     inkscape:pageopacity="0.0"
     inkscape:pagecheckerboard="0"
     inkscape:document-units="mm"
     showgrid="false"
     fit-margin-top="0"
     fit-margin-left="0"
     fit-margin-right="0"
     fit-margin-bottom="0"
     inkscape:zoom="0.92051866"
     inkscape:cx="494.28656"
     inkscape:cy="135.24984"
     inkscape:window-width="3440"
     inkscape:window-height="1413"
     inkscape:window-x="0"
     inkscape:window-y="27"
     inkscape:window-maximized="1"
     inkscape:current-layer="layer1" />
  <defs
     id="defs103" />
  <g
     inkscape:label="Layer 1"
     inkscape:groupmode="layer"
     id="layer1"
     transform="translate(-83.911296,-50.329032)">
    <g
       id="g3351">
      <g
         id="g125"
         transform="matrix(0.95943491,0,0,0.95943491,82.951861,49.369597)"
         style="fill:#000000">
        <path
           id="path94"
           transform="matrix(0.918,-0.397,0.397,0.918,-12.138,14.593)"
           d="m 28.147,35.588 h 2.001 v 2 h -2.001 z"
           inkscape:connector-curvature="0"
           style="fill:#000000" />
        <path
           id="path96"
           transform="matrix(0.918,-0.398,0.398,0.918,-13.445,15.526)"
           d="M 29.699,39.265 H 31.7 v 1.809 h -2.001 z"
           inkscape:connector-curvature="0"
           style="fill:#000000" />
        <path
           id="path98"
           transform="matrix(0.918,-0.397,0.397,0.918,-10.811,13.659)"
           d="m 26.556,31.918 h 2.001 v 2 h -2.001 z"
           inkscape:connector-curvature="0"
           style="fill:#000000" />
        <path
           id="path100"
           d="m 41,17 v 2 h 4.762 l 3.326,7.419 1.824,-0.818 L 47.057,17 Z"
           inkscape:connector-curvature="0"
           style="fill:#000000" />
        <path
           id="path102"
           d="m 8,15 c 3.859,0 7,-3.141 7,-7 C 15,4.141 11.859,1 8,1 H 7 V 2.756 L 7.251,3.039 C 7.734,3.586 8,4.282 8,5 8,6.654 6.654,8 5,8 4.282,8 3.586,7.734 3.039,7.251 L 2.756,7 H 1 v 1 c 0,3.859 3.141,7 7,7 z M 5,10 C 7.757,10 10,7.757 10,5 10,4.414 9.896,3.838 9.695,3.296 11.62,3.992 13,5.838 13,8 13,10.757 10.757,13 8,13 5.838,13 3.992,11.62 3.296,9.695 3.838,9.896 4.414,10 5,10 Z"
           inkscape:connector-curvature="0"
           style="fill:#000000" />
        <path
           id="path104"
           d="M 60.001,21.107 60.003,21 c 0,-0.797 -0.192,-1.562 -0.536,-2.245 C 61.505,18.124 63,16.243 63,14 63,12.759 62.534,11.578 61.702,10.664 61.9,10.124 62,9.566 62,9 62,6.243 59.757,4 57,4 56.431,4 55.876,4.107 55.347,4.292 54.355,2.342 52.334,1 50,1 48.667,1 47.376,1.456 46.328,2.277 45.42,1.464 44.236,1 43,1 40.887,1 39.076,2.32 38.35,4.209 37.918,4.086 37.471,4 37,4 c -2.757,0 -5,2.243 -5,5 0,0.572 0.105,1.138 0.295,1.673 -0.584,0.649 -1.013,1.44 -1.194,2.327 H 14.353 L 1,42.786 V 45 H 35.703 C 35.287,45.894 35,46.89 35,48.049 c 0,1.545 0.507,2.955 1.387,4.15 l -9.094,9.094 1.414,1.414 9.057,-9.057 c 0.501,0.411 1.061,0.776 1.671,1.089 l -4.278,6.724 1.688,1.074 4.486,-7.05 c 0.824,0.242 1.701,0.409 2.627,0.476 L 44,63.006 46,62.994 45.957,55.97 c 1.118,-0.06 2.145,-0.221 3.075,-0.477 l 5.159,7.095 1.617,-1.176 -4.84,-6.656 c 0.53,-0.269 1.011,-0.581 1.442,-0.932 l 8.883,8.883 1.414,-1.414 -8.945,-8.945 C 54.566,51.164 55,49.723 55,48.049 55,47.011 54.767,45.994 54.41,45 H 63 V 42.786 L 55.449,25.941 c 2.526,-0.291 4.522,-2.349 4.552,-4.834 z M 36,11 V 9 C 35.308,9 34.649,9.142 34.049,9.397 34.031,9.265 34,9.136 34,9 c 0,-1.654 1.346,-3 3,-3 1.654,0 3,1.346 3,3 h 2 C 42,7.433 41.261,6.05 40.129,5.132 40.502,3.886 41.654,3 43,3 c 0.97,0 1.886,0.479 2.45,1.279 l 0.729,1.033 0.837,-0.947 C 47.795,3.485 48.854,3 50,3 c 2.206,0 4,1.794 4,4 0,2.206 -1.794,4 -4,4 v 2 c 3.309,0 6,-2.691 6,-6 C 56,6.728 55.976,6.463 55.94,6.201 56.277,6.073 56.633,6 57,6 c 1.654,0 3,1.346 3,3 0,0.482 -0.128,0.961 -0.379,1.422 l -0.399,0.732 0.649,0.524 C 60.589,12.258 61,13.104 61,14 c 0,1.654 -1.346,3 -3,3 v 0.003 c -0.393,-0.296 -0.832,-0.539 -1.311,-0.711 l -0.674,1.883 c 1.188,0.426 1.987,1.562 1.986,2.87 C 57.981,22.675 56.567,24 54.849,24 h -0.27 L 49.648,13 H 33.184 C 33.598,11.839 34.698,11 36,11 Z M 23.451,40.578 C 18.646,34.812 16,27.504 16,20 V 18.824 L 26.476,43 H 25.468 Z M 22.865,43 H 7.135 L 8.086,41.859 C 11.42,37.858 13.767,33.156 15,28.155 c 1.233,5 3.58,9.702 6.914,13.703 z M 14,18.675 V 20 c 0,7.504 -2.646,14.812 -7.451,20.579 L 4.532,43 H 3.096 Z m 23,29.374 c 0,-1.816 0.982,-3.158 2.021,-4.579 0.686,-0.935 1.387,-1.893 1.741,-2.978 C 41.384,40.857 42,41.385 42,42 v 1 h 2 v -1 c 0,-0.721 -0.253,-1.332 -0.626,-1.841 0.796,-1.911 2.691,-3.133 3.893,-3.744 0.431,1.236 1.334,2.579 2.335,4.068 1.592,2.369 3.398,5.053 3.398,7.566 0,2.852 -1.532,4.363 -3.409,5.15 C 49.85,52.616 50,51.976 50,51.299 50,50.236 49.634,49.192 48.97,48.361 L 45,43.399 41.031,48.361 C 40.366,49.191 40,50.235 40,51.299 c 0,0.579 0.119,1.127 0.312,1.64 C 38.282,51.882 37,50.123 37,48.049 Z M 44.951,54 C 44.821,54 44.695,53.991 44.567,53.986 43.141,53.915 42,52.742 42,51.299 c 0,-0.611 0.21,-1.211 0.593,-1.688 L 45,46.601 47.408,49.612 C 47.79,50.088 48,50.688 48,51.299 48,52.764 46.825,53.955 45.369,53.993 45.227,53.996 45.085,54 44.951,54 Z M 53.514,43 C 52.841,41.733 52.033,40.515 51.261,39.367 50.149,37.714 49,36.005 49,35 v -1.398 l -1.323,0.452 c -0.187,0.063 -4.128,1.444 -5.868,4.74 -0.761,-0.456 -1.442,-0.678 -1.507,-0.698 L 39,37.683 v 1.366 c 0,1.065 -0.737,2.073 -1.592,3.24 C 37.239,42.52 37.067,42.758 36.896,43 H 28.657 L 16.524,15 h 31.829 l 12.552,28 z"
           inkscape:connector-curvature="0"
           style="fill:#000000" />
        <path
           id="path106"
           d="m 37,17 h 2 v 2 h -2 z"
           inkscape:connector-curvature="0"
           style="fill:#000000" />
        <path
           id="path108"
           d="m 33,17 h 2 v 2 h -2 z"
           inkscape:connector-curvature="0"
           style="fill:#000000" />
      </g>
      <g
         id="g1485"
         transform="matrix(0.49025327,0,0.13136297,0.49025327,57.199661,-38.357003)"
         style="fill:#000000">
        <path
           inkscape:transform-center-y="58.153866"
           inkscape:transform-center-x="15.959186"
           d="m 62.02413,220.44224 c -0.977241,0.006 -1.910487,0.088 -2.731645,0.2332 -2.419031,0.42733 -2.858233,1.32186 -2.858233,2.97149 v 2.17864 h 5.716466 v 0.72623 H 56.434252 54.28891 c -1.661364,0 -3.116105,0.99858 -3.571127,2.8982 -0.524864,2.17743 -0.548144,3.53617 0,5.80975 0.406347,1.69236 1.376759,2.89821 3.038123,2.89821 h 1.965453 v -2.61172 c 0,-1.88681 1.632514,-3.55115 3.571126,-3.55115 h 5.709806 c 1.589406,0 2.858233,-1.30866 2.858233,-2.90487 v -5.44329 c 0,-1.54921 -1.306921,-2.71295 -2.858233,-2.97149 -0.982004,-0.16351 -2.000917,-0.23773 -2.978161,-0.2332 z m -3.091424,1.75225 c 0.590474,0 1.072672,0.49008 1.072672,1.09267 0,0.60043 -0.482198,1.08598 -1.072672,1.08598 -0.592589,0 -1.072668,-0.48555 -1.072668,-1.08598 0,-0.60259 0.480079,-1.09267 1.072668,-1.09267 z"
           style="fill:#000000;fill-opacity:1;stroke-width:0.213202"
           id="path1948"
           inkscape:connector-curvature="0" />
        <path
           inkscape:transform-center-y="64.331539"
           inkscape:transform-center-x="9.8224335"
           d="m 68.573417,226.5518 v 2.53842 c 0,1.96803 -1.668494,3.62443 -3.571126,3.62443 h -5.709806 c -1.564011,0 -2.858233,1.33859 -2.858233,2.90487 v 5.44331 c 0,1.54919 1.347133,2.46041 2.858233,2.90486 1.809513,0.53208 3.54474,0.62823 5.709806,0 1.439142,-0.41666 2.858233,-1.25523 2.858233,-2.90486 v -2.17865 h -5.709806 v -0.72622 h 5.709806 2.858235 c 1.661364,0 2.280458,-1.15884 2.858231,-2.89821 0.596822,-1.79065 0.571427,-3.51266 0,-5.80975 -0.410581,-1.65389 -1.194754,-2.8982 -2.858231,-2.8982 z m -3.211348,13.7848 c 0.592588,0 1.072669,0.48555 1.072669,1.086 0,0.60259 -0.480083,1.09267 -1.072669,1.09267 -0.590472,0 -1.072672,-0.49008 -1.072672,-1.09267 0,-0.60045 0.482198,-1.086 1.072672,-1.086 z"
           style="fill:#000000;fill-opacity:1;stroke-width:0.213202"
           id="path1950"
           inkscape:connector-curvature="0" />
        <path
           inkscape:transform-center-y="76.521923"
           inkscape:transform-center-x="12.831547"
           d="m 69.876122,247.66806 a 7.6605419,1.4854421 0 1 1 -15.321083,0 7.6605419,1.4854421 0 1 1 15.321083,0 z"
           style="opacity:1;fill:#000000;fill-opacity:1;fill-rule:nonzero;stroke:none;stroke-width:3.28701;stroke-miterlimit:4;stroke-dasharray:none;stroke-opacity:1"
           id="path1894"
           inkscape:connector-curvature="0" />
      </g>
    </g>
  </g>
</svg>
